<svg width="27" height="28" viewBox="0 0 27 28" fill="none" xmlns="http://www.w3.org/2000/svg">
<path d="M25.8374 0.895811C25.6563 0.702679 25.4411 0.549455 25.2042 0.44491C24.9673 0.340365 24.7133 0.286552 24.4568 0.286552C24.2003 0.286552 23.9464 0.340365 23.7095 0.44491C23.4726 0.549455 23.2574 0.702679 23.0762 0.895811L13.4999 11.0625L3.9237 0.874977C3.74239 0.682098 3.52715 0.529098 3.29026 0.424713C3.05338 0.320327 2.79948 0.266602 2.54307 0.266602C2.28667 0.266602 2.03277 0.320327 1.79589 0.424713C1.559 0.529098 1.34376 0.682098 1.16245 0.874977C0.981143 1.06786 0.837323 1.29684 0.739201 1.54885C0.641079 1.80085 0.590576 2.07096 0.590576 2.34373C0.590576 2.6165 0.641079 2.8866 0.739201 3.13861C0.837323 3.39062 0.981143 3.6196 1.16245 3.81248L10.7387 14L1.16245 24.1875C0.981143 24.3804 0.837323 24.6093 0.739201 24.8613C0.641079 25.1134 0.590576 25.3835 0.590576 25.6562C0.590576 25.929 0.641079 26.1991 0.739201 26.4511C0.837323 26.7031 0.981143 26.9321 1.16245 27.125C1.34376 27.3179 1.559 27.4709 1.79589 27.5752C2.03277 27.6796 2.28667 27.7334 2.54307 27.7334C2.79948 27.7334 3.05338 27.6796 3.29026 27.5752C3.52715 27.4709 3.74239 27.3179 3.9237 27.125L13.4999 16.9375L23.0762 27.125C23.2575 27.3179 23.4727 27.4709 23.7096 27.5752C23.9465 27.6796 24.2004 27.7334 24.4568 27.7334C24.7132 27.7334 24.9671 27.6796 25.204 27.5752C25.4409 27.4709 25.6561 27.3179 25.8374 27.125C26.0188 26.9321 26.1626 26.7031 26.2607 26.4511C26.3588 26.1991 26.4093 25.929 26.4093 25.6562C26.4093 25.3835 26.3588 25.1134 26.2607 24.8613C26.1626 24.6093 26.0188 24.3804 25.8374 24.1875L16.2612 14L25.8374 3.81248C26.5816 3.02081 26.5816 1.68748 25.8374 0.895811Z" fill="white"/>
</svg>
