<svg width="27" height="28" viewBox="0 0 27 28" fill="none" xmlns="http://www.w3.org/2000/svg">
<path d="M25.8377 0.895811C25.6565 0.702679 25.4413 0.549455 25.2044 0.44491C24.9675 0.340365 24.7135 0.286552 24.4571 0.286552C24.2006 0.286552 23.9466 0.340365 23.7097 0.44491C23.4728 0.549455 23.2576 0.702679 23.0764 0.895811L13.5002 11.0625L3.92394 0.874977C3.74264 0.682098 3.5274 0.529098 3.29051 0.424713C3.05362 0.320327 2.79972 0.266602 2.54332 0.266602C2.28691 0.266602 2.03302 0.320327 1.79613 0.424713C1.55924 0.529098 1.344 0.682098 1.16269 0.874977C0.981387 1.06786 0.837567 1.29684 0.739445 1.54885C0.641323 1.80085 0.59082 2.07096 0.59082 2.34373C0.59082 2.6165 0.641323 2.8866 0.739445 3.13861C0.837567 3.39062 0.981387 3.6196 1.16269 3.81248L10.7389 14L1.16269 24.1875C0.981387 24.3804 0.837567 24.6093 0.739445 24.8613C0.641323 25.1134 0.59082 25.3835 0.59082 25.6562C0.59082 25.929 0.641323 26.1991 0.739445 26.4511C0.837567 26.7031 0.981387 26.9321 1.16269 27.125C1.344 27.3179 1.55924 27.4709 1.79613 27.5752C2.03302 27.6796 2.28691 27.7334 2.54332 27.7334C2.79972 27.7334 3.05362 27.6796 3.29051 27.5752C3.5274 27.4709 3.74264 27.3179 3.92394 27.125L13.5002 16.9375L23.0764 27.125C23.2577 27.3179 23.473 27.4709 23.7099 27.5752C23.9468 27.6796 24.2007 27.7334 24.4571 27.7334C24.7135 27.7334 24.9674 27.6796 25.2043 27.5752C25.4411 27.4709 25.6564 27.3179 25.8377 27.125C26.019 26.9321 26.1628 26.7031 26.2609 26.4511C26.3591 26.1991 26.4096 25.929 26.4096 25.6562C26.4096 25.3835 26.3591 25.1134 26.2609 24.8613C26.1628 24.6093 26.019 24.3804 25.8377 24.1875L16.2614 14L25.8377 3.81248C26.5819 3.02081 26.5819 1.68748 25.8377 0.895811Z" fill="#D949F8"/>
</svg>
