<svg width="39" height="39" viewBox="0 0 39 39" fill="none" xmlns="http://www.w3.org/2000/svg">
<path d="M21.0803 16.875H25.0803V20.8125H21.0803V30H17.0803V20.8125H13.0803V16.875H17.0803V15.2278C17.0803 13.6672 17.579 11.6959 18.571 10.6183C19.563 9.53812 20.8017 9 22.2857 9H25.0803V12.9375H22.2803C21.6163 12.9375 21.0803 13.4651 21.0803 14.1174V16.875Z" fill="#3822E4"/>
<path d="M33.6044 2.40031C34.241 2.40031 34.8515 2.6532 35.3016 3.10335C35.7518 3.55349 36.0047 4.16402 36.0047 4.80062V33.6044C36.0047 34.241 35.7518 34.8515 35.3016 35.3016C34.8515 35.7518 34.241 36.0047 33.6044 36.0047H4.80062C4.16402 36.0047 3.55349 35.7518 3.10335 35.3016C2.6532 34.8515 2.40031 34.241 2.40031 33.6044V4.80062C2.40031 4.16402 2.6532 3.55349 3.10335 3.10335C3.55349 2.6532 4.16402 2.40031 4.80062 2.40031H33.6044ZM4.80062 0C3.52742 0 2.30636 0.505778 1.40607 1.40607C0.505778 2.30636 0 3.52742 0 4.80062L0 33.6044C0 34.8776 0.505778 36.0986 1.40607 36.9989C2.30636 37.8992 3.52742 38.405 4.80062 38.405H33.6044C34.8776 38.405 36.0986 37.8992 36.9989 36.9989C37.8992 36.0986 38.405 34.8776 38.405 33.6044V4.80062C38.405 3.52742 37.8992 2.30636 36.9989 1.40607C36.0986 0.505778 34.8776 0 33.6044 0L4.80062 0Z" fill="#3822E4"/>
</svg>
