<svg width="22" height="13" viewBox="0 0 22 13" fill="none" xmlns="http://www.w3.org/2000/svg">
<path d="M0.435356 10.424L10.1873 0.32951C10.3034 0.209695 10.4292 0.124626 10.5646 0.0743036C10.7001 0.0239811 10.8452 -0.000780536 11 1.82405e-05C11.1548 1.82473e-05 11.2999 0.0247799 11.4354 0.0743036C11.5708 0.123827 11.6966 0.208896 11.8127 0.32951L21.5937 10.424C21.8646 10.7035 22 11.053 22 11.4724C22 11.8917 21.8549 12.2512 21.5646 12.5507C21.2744 12.8502 20.9358 13 20.5488 13C20.1618 13 19.8232 12.8502 19.533 12.5507L11 3.74425L2.46702 12.5507C2.19613 12.8303 1.86216 12.97 1.46512 12.97C1.06807 12.97 0.724819 12.8203 0.435356 12.5207C0.145118 12.2212 -5.1893e-07 11.8717 -5.01473e-07 11.4724C-4.84015e-07 11.073 0.145118 10.7235 0.435356 10.424Z" fill="#3822E4"/>
</svg>
