<svg width="84" height="84" viewBox="0 0 84 84" fill="none" xmlns="http://www.w3.org/2000/svg">
<g clip-path="url(#clip0_1341_55)">
<path d="M73.2403 5.23145C74.6277 5.23145 75.9584 5.78262 76.9395 6.7637C77.9205 7.74479 78.4717 9.07543 78.4717 10.4629V73.2403C78.4717 74.6277 77.9205 75.9584 76.9395 76.9395C75.9584 77.9205 74.6277 78.4717 73.2403 78.4717H10.4629C9.07543 78.4717 7.74479 77.9205 6.7637 76.9395C5.78262 75.9584 5.23145 74.6277 5.23145 73.2403V10.4629C5.23145 9.07543 5.78262 7.74479 6.7637 6.7637C7.74479 5.78262 9.07543 5.23145 10.4629 5.23145H73.2403ZM10.4629 0C7.68796 0 5.02668 1.10234 3.06451 3.06451C1.10234 5.02668 0 7.68796 0 10.4629L0 73.2403C0 76.0152 1.10234 78.6765 3.06451 80.6386C5.02668 82.6008 7.68796 83.7032 10.4629 83.7032H73.2403C76.0152 83.7032 78.6765 82.6008 80.6386 80.6386C82.6008 78.6765 83.7032 76.0152 83.7032 73.2403V10.4629C83.7032 7.68796 82.6008 5.02668 80.6386 3.06451C78.6765 1.10234 76.0152 0 73.2403 0L10.4629 0Z" fill="url(#paint0_linear_1341_55)"/>
<path d="M32.2905 46.1167C30.2543 44.606 28.6005 42.6391 27.4616 40.3738C26.3227 38.1085 25.7305 35.6079 25.7324 33.0724C25.7324 24.0977 33.0079 16.8223 41.9826 16.8223C50.9574 16.8223 58.2328 24.0977 58.2328 33.0724C58.2328 38.3363 55.7291 43.0164 51.8488 45.9855" stroke="url(#paint1_linear_1341_55)" stroke-width="3.13887" stroke-linecap="round" stroke-linejoin="round"/>
<path d="M41.9821 33.0723L65.1967 64.4119H18.7676L41.9821 33.0723Z" stroke="url(#paint2_linear_1341_55)" stroke-width="3.13887" stroke-linecap="round" stroke-linejoin="round"/>
</g>
<defs>
<linearGradient id="paint0_linear_1341_55" x1="41.8516" y1="0" x2="41.8516" y2="83.7032" gradientUnits="userSpaceOnUse">
<stop stop-color="#9B33FF"/>
<stop offset="1" stop-color="#FF1A60"/>
</linearGradient>
<linearGradient id="paint1_linear_1341_55" x1="41.9826" y1="16.8223" x2="41.9826" y2="46.1167" gradientUnits="userSpaceOnUse">
<stop stop-color="#9B33FF"/>
<stop offset="1" stop-color="#FF1A60"/>
</linearGradient>
<linearGradient id="paint2_linear_1341_55" x1="41.9821" y1="33.0723" x2="41.9821" y2="64.4119" gradientUnits="userSpaceOnUse">
<stop stop-color="#9B33FF"/>
<stop offset="1" stop-color="#FF1A60"/>
</linearGradient>
<clipPath id="clip0_1341_55">
<rect width="83.7032" height="83.7032" fill="white"/>
</clipPath>
</defs>
</svg>
