<svg width="84" height="84" viewBox="0 0 84 84" fill="none" xmlns="http://www.w3.org/2000/svg">
<g clip-path="url(#clip0_1341_45)">
<path d="M73.2383 5.23145C74.6258 5.23145 75.9564 5.78262 76.9375 6.7637C77.9186 7.74479 78.4698 9.07543 78.4698 10.4629V73.2403C78.4698 74.6277 77.9186 75.9584 76.9375 76.9395C75.9564 77.9205 74.6258 78.4717 73.2383 78.4717H10.4609C9.07348 78.4717 7.74284 77.9205 6.76175 76.9395C5.78066 75.9584 5.22949 74.6277 5.22949 73.2403V10.4629C5.22949 9.07543 5.78066 7.74479 6.76175 6.7637C7.74284 5.78262 9.07348 5.23145 10.4609 5.23145H73.2383ZM10.4609 0C7.68601 0 5.02473 1.10234 3.06256 3.06451C1.10038 5.02668 -0.00195312 7.68796 -0.00195312 10.4629L-0.00195312 73.2403C-0.00195312 76.0152 1.10038 78.6765 3.06256 80.6386C5.02473 82.6008 7.68601 83.7032 10.4609 83.7032H73.2383C76.0132 83.7032 78.6745 82.6008 80.6367 80.6386C82.5989 78.6765 83.7012 76.0152 83.7012 73.2403V10.4629C83.7012 7.68796 82.5989 5.02668 80.6367 3.06451C78.6745 1.10234 76.0132 0 73.2383 0L10.4609 0Z" fill="url(#paint0_linear_1341_45)"/>
<path d="M31.8125 57.3066C31.2463 57.3072 30.6993 57.1014 30.2739 56.7277L16.0239 44.259C15.7733 44.0396 15.5725 43.7691 15.4349 43.4657C15.2973 43.1624 15.2261 42.8331 15.2261 42.5C15.2261 42.1669 15.2973 41.8376 15.4349 41.5343C15.5725 41.2309 15.7733 40.9604 16.0239 40.741L30.2739 28.2723C30.7406 27.8639 31.3504 27.6577 31.9691 27.6989C32.5878 27.7401 33.1648 28.0255 33.5731 28.4921C33.9815 28.9588 34.1877 29.5686 34.1465 30.1873C34.1053 30.806 33.8199 31.383 33.3533 31.7913L21.1127 42.5L33.3522 53.2087C33.7104 53.5218 33.9645 53.9369 34.0806 54.3983C34.1967 54.8597 34.1693 55.3456 34.0019 55.791C33.8346 56.2364 33.5353 56.6202 33.1441 56.891C32.7528 57.1618 32.2883 57.3068 31.8125 57.3066ZM53.1875 57.3066C52.7116 57.3071 52.2469 57.1622 51.8555 56.8915C51.4641 56.6207 51.1646 56.237 50.9971 55.7915C50.8297 55.3461 50.8021 54.8601 50.9182 54.3986C51.0342 53.937 51.2884 53.5219 51.6467 53.2087L63.8872 42.5L51.6478 31.7913C51.1812 31.383 50.8958 30.806 50.8546 30.1873C50.8134 29.5686 51.0196 28.9588 51.4279 28.4921C51.8363 28.0255 52.4133 27.7401 53.032 27.6989C53.6507 27.6577 54.2605 27.8639 54.7272 28.2723L68.9772 40.741C69.2278 40.9604 69.4286 41.2309 69.5662 41.5343C69.7038 41.8376 69.775 42.1669 69.775 42.5C69.775 42.8331 69.7038 43.1624 69.5662 43.4657C69.4286 43.7691 69.2278 44.0396 68.9772 44.259L54.7272 56.7277C54.3016 57.1018 53.7541 57.3077 53.1875 57.3066ZM37.1562 62.6504C36.7922 62.6503 36.4331 62.5652 36.1078 62.4018C35.7824 62.2385 35.4997 62.0014 35.2821 61.7095C35.0646 61.4175 34.9182 61.0788 34.8547 60.7203C34.7912 60.3618 34.8123 59.9934 34.9163 59.6445L45.6038 24.0195C45.6843 23.7172 45.8247 23.4342 46.0166 23.1871C46.2085 22.94 46.448 22.734 46.721 22.5811C46.994 22.4283 47.2949 22.3319 47.6058 22.2975C47.9167 22.263 48.2314 22.2914 48.5312 22.3808C48.831 22.4702 49.1098 22.6189 49.3511 22.818C49.5924 23.0172 49.7912 23.2627 49.9359 23.5401C50.0806 23.8175 50.1681 24.1211 50.1933 24.4329C50.2185 24.7447 50.1808 25.0585 50.0825 25.3555L39.395 60.9805C39.2513 61.4627 38.9558 61.8856 38.5524 62.1865C38.1491 62.4874 37.6594 62.65 37.1562 62.6504Z" fill="url(#paint1_linear_1341_45)"/>
</g>
<defs>
<linearGradient id="paint0_linear_1341_45" x1="41.8496" y1="0" x2="41.8496" y2="83.7032" gradientUnits="userSpaceOnUse">
<stop stop-color="#9B33FF"/>
<stop offset="1" stop-color="#FF1A60"/>
</linearGradient>
<linearGradient id="paint1_linear_1341_45" x1="42.5005" y1="22.2833" x2="42.5005" y2="62.6504" gradientUnits="userSpaceOnUse">
<stop stop-color="#9B33FF"/>
<stop offset="0.989583" stop-color="#FF1A60"/>
</linearGradient>
<clipPath id="clip0_1341_45">
<rect width="83.7032" height="83.7032" fill="white"/>
</clipPath>
</defs>
</svg>
