<svg width="39" height="39" viewBox="0 0 39 39" fill="none" xmlns="http://www.w3.org/2000/svg">
<path d="M33.6044 2.40031C34.241 2.40031 34.8515 2.6532 35.3016 3.10335C35.7518 3.55349 36.0047 4.16402 36.0047 4.80062V33.6044C36.0047 34.241 35.7518 34.8515 35.3016 35.3016C34.8515 35.7518 34.241 36.0047 33.6044 36.0047H4.80062C4.16402 36.0047 3.55349 35.7518 3.10335 35.3016C2.6532 34.8515 2.40031 34.241 2.40031 33.6044V4.80062C2.40031 4.16402 2.6532 3.55349 3.10335 3.10335C3.55349 2.6532 4.16402 2.40031 4.80062 2.40031H33.6044ZM4.80062 0C3.52742 0 2.30636 0.505778 1.40607 1.40607C0.505778 2.30636 0 3.52742 0 4.80062L0 33.6044C0 34.8776 0.505778 36.0986 1.40607 36.9989C2.30636 37.8992 3.52742 38.405 4.80062 38.405H33.6044C34.8776 38.405 36.0986 37.8992 36.9989 36.9989C37.8992 36.0986 38.405 34.8776 38.405 33.6044V4.80062C38.405 3.52742 37.8992 2.30636 36.9989 1.40607C36.0986 0.505778 34.8776 0 33.6044 0L4.80062 0Z" fill="#3822E4"/>
<path d="M24.3462 9H14.6538C13.1548 9.0016 11.7177 9.59779 10.6577 10.6577C9.59779 11.7177 9.0016 13.1548 9 14.6538V24.3462C9.0016 25.8452 9.59779 27.2823 10.6577 28.3423C11.7177 29.4022 13.1548 29.9984 14.6538 30H24.3462C25.8452 29.9984 27.2823 29.4022 28.3423 28.3423C29.4022 27.2823 29.9984 25.8452 30 24.3462V14.6538C29.9984 13.1548 29.4022 11.7177 28.3423 10.6577C27.2823 9.59779 25.8452 9.0016 24.3462 9ZM19.5 24.3462C18.5415 24.3462 17.6046 24.0619 16.8076 23.5294C16.0107 22.9969 15.3895 22.2401 15.0227 21.3545C14.6559 20.469 14.56 19.4946 14.747 18.5546C14.934 17.6145 15.3955 16.751 16.0733 16.0733C16.751 15.3955 17.6145 14.934 18.5546 14.747C19.4946 14.56 20.469 14.6559 21.3545 15.0227C22.2401 15.3895 22.9969 16.0107 23.5294 16.8076C24.0619 17.6046 24.3462 18.5415 24.3462 19.5C24.3448 20.7849 23.8338 22.0167 22.9253 22.9253C22.0167 23.8338 20.7849 24.3448 19.5 24.3462ZM25.5577 14.6538C25.3181 14.6538 25.0838 14.5828 24.8846 14.4497C24.6854 14.3165 24.5301 14.1273 24.4384 13.9059C24.3467 13.6846 24.3227 13.441 24.3694 13.2059C24.4162 12.9709 24.5316 12.7551 24.701 12.5856C24.8704 12.4162 25.0863 12.3008 25.3213 12.254C25.5563 12.2073 25.7999 12.2313 26.0213 12.323C26.2427 12.4147 26.4319 12.57 26.565 12.7692C26.6982 12.9684 26.7692 13.2027 26.7692 13.4423C26.7692 13.7636 26.6416 14.0718 26.4144 14.299C26.1872 14.5262 25.879 14.6538 25.5577 14.6538ZM22.7308 19.5C22.7308 20.139 22.5413 20.7636 22.1863 21.2949C21.8313 21.8262 21.3267 22.2403 20.7364 22.4848C20.146 22.7294 19.4964 22.7934 18.8697 22.6687C18.243 22.544 17.6673 22.2363 17.2155 21.7845C16.7637 21.3327 16.456 20.757 16.3313 20.1303C16.2066 19.5036 16.2706 18.854 16.5152 18.2636C16.7597 17.6733 17.1738 17.1687 17.7051 16.8137C18.2364 16.4587 18.861 16.2692 19.5 16.2692C20.3569 16.2692 21.1786 16.6096 21.7845 17.2155C22.3904 17.8214 22.7308 18.6431 22.7308 19.5Z" fill="#3822E4"/>
</svg>
