<svg width="12" height="15" viewBox="0 0 12 15" fill="none" xmlns="http://www.w3.org/2000/svg">
<path fill-rule="evenodd" clip-rule="evenodd" d="M0.166672 13.6667C0.166672 13.5341 0.21935 13.4069 0.313118 13.3131C0.406886 13.2193 0.534063 13.1667 0.666672 13.1667H11.3333C11.4659 13.1667 11.5931 13.2193 11.6869 13.3131C11.7807 13.4069 11.8333 13.5341 11.8333 13.6667C11.8333 13.7993 11.7807 13.9265 11.6869 14.0202C11.5931 14.114 11.4659 14.1667 11.3333 14.1667H0.666672C0.534063 14.1667 0.406886 14.114 0.313118 14.0202C0.21935 13.9265 0.166672 13.7993 0.166672 13.6667Z" fill="white"/>
<path d="M5.68001 8.95267L9.62468 5.00801C8.961 4.73097 8.35824 4.32619 7.85068 3.81667C7.34085 3.30897 6.93584 2.70598 6.65868 2.04201L2.71334 5.98667C2.40534 6.29467 2.25134 6.44801 2.11934 6.61801C1.96315 6.81819 1.82925 7.0348 1.72001 7.26401C1.62734 7.45801 1.55868 7.66467 1.42068 8.07734L0.695344 10.2553C0.662057 10.355 0.657192 10.4619 0.681294 10.5642C0.705397 10.6664 0.757513 10.7599 0.831796 10.8342C0.90608 10.9085 0.999592 10.9606 1.10184 10.9847C1.20409 11.0088 1.31104 11.004 1.41068 10.9707L3.58801 10.2453C4.00134 10.1073 4.20801 10.0387 4.40201 9.94534C4.63131 9.83654 4.84795 9.70285 5.04801 9.54667C5.21801 9.41401 5.37134 9.26001 5.67934 8.95267H5.68001ZM10.7193 3.91334C11.1127 3.51993 11.3336 2.9864 11.3335 2.4301C11.3335 1.87381 11.1124 1.34032 10.719 0.947006C10.3256 0.55369 9.79207 0.332762 9.23577 0.332825C8.67948 0.332887 8.14599 0.553935 7.75268 0.947339L7.27934 1.42067L7.30001 1.48067C7.47334 1.98001 7.80068 2.63534 8.41601 3.25067C8.92932 3.76689 9.55623 4.15591 10.2467 4.38667L10.7193 3.91334Z" fill="white"/>
</svg>
