<svg width="19" height="19" viewBox="0 0 19 19" fill="none" xmlns="http://www.w3.org/2000/svg">
<g clip-path="url(#clip0_1474_133)">
<path d="M0.791666 15.8333C0.56736 15.8333 0.379207 15.7573 0.227207 15.6053C0.0752072 15.4533 -0.000528853 15.2654 -1.07537e-06 15.0417C-1.07537e-06 14.8174 0.0759989 14.6292 0.227999 14.4772C0.379999 14.3252 0.567888 14.2495 0.791666 14.25H1.58333V3.95833C1.58333 3.52292 1.7385 3.15004 2.04883 2.83971C2.35917 2.52938 2.73178 2.37447 3.16667 2.375H15.8333C16.2687 2.375 16.6416 2.53017 16.952 2.8405C17.2623 3.15083 17.4172 3.52345 17.4167 3.95833V14.25H18.2083C18.4326 14.25 18.6208 14.326 18.7728 14.478C18.9248 14.63 19.0005 14.8179 19 15.0417C19 15.266 18.924 15.4541 18.772 15.6061C18.62 15.7581 18.4321 15.8339 18.2083 15.8333H0.791666ZM8.3125 14.25H10.6875C10.7931 14.25 10.8854 14.2104 10.9646 14.1313C11.0437 14.0521 11.0833 13.9597 11.0833 13.8542C11.0833 13.7486 11.0437 13.6563 10.9646 13.5771C10.8854 13.4979 10.7931 13.4583 10.6875 13.4583H8.3125C8.20694 13.4583 8.11458 13.4979 8.03541 13.5771C7.95625 13.6563 7.91667 13.7486 7.91667 13.8542C7.91667 13.9597 7.95625 14.0521 8.03541 14.1313C8.11458 14.2104 8.20694 14.25 8.3125 14.25ZM3.16667 11.875H15.8333V3.95833H3.16667V11.875Z" fill="white"/>
</g>
<defs>
<clipPath id="clip0_1474_133">
<rect width="19" height="19" fill="white"/>
</clipPath>
</defs>
</svg>
