<svg width="155" height="32" viewBox="0 0 155 32" fill="none" xmlns="http://www.w3.org/2000/svg">
<path d="M23.7957 16.3279H23.5488L16.2392 0.839451C16.0219 0.375192 15.5477 0.0788574 15.0341 0.0788574H1.33351C0.592669 0.0788574 0 0.671528 0 1.41237V30.5224C0 31.2632 0.592669 31.8559 1.33351 31.8559H11.1817C11.9226 31.8559 12.5152 31.2632 12.5152 30.5224V15.4685H12.7622L20.5953 31.1249C20.8225 31.5793 21.2867 31.8658 21.7905 31.8658H34.9774C35.7183 31.8658 36.3109 31.2731 36.3109 30.5322V1.41237C36.3109 0.671528 35.7183 0.0788574 34.9774 0.0788574H25.1292C24.3884 0.0788574 23.7957 0.671528 23.7957 1.41237V16.3279Z" fill="#3822E4"/>
<path d="M53.9634 17.9276H71.546C71.9707 17.9276 72.3263 17.5819 72.3263 17.1473V14.7865C72.3263 14.3617 71.9806 14.0061 71.546 14.0061H53.9634V9.52159H72.3461C73.0869 9.52159 73.6796 8.92892 73.6796 8.18808V1.41188C73.6796 0.67104 73.0869 0.0783691 72.3461 0.0783691H41.7643C41.0234 0.0783691 40.4308 0.67104 40.4308 1.41188V30.5416C40.4308 31.2627 41.0235 31.8554 41.7445 31.8554H72.5535C73.2944 31.8554 73.887 31.2627 73.887 30.5219V24.1605C73.887 23.4197 73.2944 22.827 72.5535 22.827H53.9634V17.9276Z" fill="#3822E4"/>
<path d="M114.305 12.6529C114.305 1.61931 107.983 0.0783691 99.6164 0.0783691H79.3273C78.5865 0.0783691 77.9938 0.67104 77.9938 1.41188V30.5219C77.9938 31.2627 78.5865 31.8554 79.3273 31.8554H90.1929C90.9338 31.8554 91.5264 31.2627 91.5264 30.5219V24.9113H93.8181C94.5392 28.408 97.3543 31.1145 100.9 31.7072C101.325 31.7961 101.77 31.8554 102.254 31.8554H112.971C113.712 31.8554 114.305 31.2627 114.305 30.5219V24.9113C114.305 24.1704 113.712 23.5778 112.971 23.5778H108.595C112.3 22.0664 114.305 18.945 114.305 12.6529ZM91.5363 9.43268H97.6408C99.1422 9.43268 100.397 10.5983 100.515 12.0898C100.792 15.5668 99.7053 16.7324 96.7024 16.8312H91.5363V9.43268Z" fill="#3822E4"/>
<path d="M154.126 15.7841C154.126 4.24682 148.545 0.0783691 137.719 0.0783691H119.771C119.03 0.0783691 118.438 0.67104 118.438 1.41188V30.3441C118.438 31.1837 119.119 31.8554 119.949 31.8554H137.719C148.545 31.8554 154.126 27.6771 154.126 16.1496C154.126 16.0903 154.117 16.0311 154.117 15.9718C154.117 15.9027 154.126 15.8533 154.126 15.7841ZM135.408 22.0961H131.753V18.5203V9.83768H135.408C139.438 9.83768 140.515 12.0404 140.564 15.9718C140.515 19.8933 139.448 22.0961 135.408 22.0961Z" fill="#3822E4"/>
</svg>
