<svg width="198" height="38" viewBox="0 0 198 38" fill="none" xmlns="http://www.w3.org/2000/svg">
<path d="M35.5142 0.75V6.78517H45.073V36.6736H51.1112V6.79454H60.67V0.75H35.5142Z" fill="white"/>
<path d="M72.7402 30.6384V20.3299H88.6403V14.2916H72.7402V6.79454H92.0578V0.75H66.7051V36.6736H92.5732L93.5759 30.6322L72.7402 30.6384Z" fill="white"/>
<path d="M122.8 0.749708V23.3347L99.6055 0V36.6733H105.641V14.6412L128.835 37.9228V0.749708H122.8Z" fill="white"/>
<path d="M170.809 36.9989H160.504L160.366 36.6802H160.36L160.504 36.9989H153.962L159.082 33.9969L159.113 33.9813H159.157L150.364 14.1921L141.967 33.3878L141.917 33.5002L141.68 34.025L141.686 34.0313L146.756 36.9989H129.981L135.091 34.0094L150.364 0.759766L165.673 33.9938L170.809 36.9989Z" fill="white"/>
<path d="M40.8279 36.9989H30.5226L30.3851 36.6802H30.3789L30.5226 36.9989H23.9813L29.1012 33.9969L29.1325 33.9813H29.1762L20.3796 14.1921L11.986 33.3878L11.936 33.5002L11.6986 34.025L11.7048 34.0313L16.7748 36.9989H0L5.11052 34.0094L20.3796 0.759766L35.6924 33.9938L40.8279 36.9989Z" fill="white"/>
<path d="M192.535 18.7184C190.217 17.2096 187.249 16.3037 184.435 15.351C179.199 13.686 176.082 12.4802 176.082 10.0156C176.082 9.15964 176.435 8.55675 177.241 8.00384C178.447 7.251 180.455 6.79493 182.926 6.79493C188.358 6.79493 192.632 9.51262 192.682 9.51262L195.952 4.43022C195.699 4.2834 190.17 0.759766 182.926 0.759766C173.414 0.759766 170.047 5.53917 170.047 10.0156C170.023 11.7067 170.495 13.3679 171.402 14.795C172.276 16.0261 173.388 17.0692 174.673 17.8625C176.988 19.3245 179.852 20.2272 182.57 21.1331C188.002 22.8418 191.273 24.1039 191.273 26.8684C191.273 29.6798 187.852 31.1449 184.435 31.1449C177.541 31.1449 175.176 27.6212 175.126 27.4713V27.5213L169.94 30.5888C170.143 30.9418 171.149 32.5537 173.464 34.1125C174.838 35.0451 176.35 35.7576 177.944 36.2242C180.036 36.8839 182.219 37.2066 184.413 37.18C186.046 37.2007 187.673 36.9807 189.242 36.5272C190.685 36.1104 192.045 35.4478 193.263 34.5686C195.88 32.6537 197.286 29.8829 197.286 26.8684C197.299 23.4978 195.69 20.7427 192.535 18.7184Z" fill="white"/>
</svg>
