<svg width="19" height="19" viewBox="0 0 19 19" fill="none" xmlns="http://www.w3.org/2000/svg">
<path d="M13.0625 9.50001C15.0417 9.50001 16.625 11.0833 16.625 13.0625C16.625 13.7592 16.4271 14.4163 16.0788 14.9625L18.5171 17.4167L17.4167 18.5171L14.9467 16.0867C14.4004 16.4271 13.7513 16.625 13.0625 16.625C11.0833 16.625 9.5 15.0417 9.5 13.0625C9.5 11.0833 11.0833 9.50001 13.0625 9.50001ZM13.0625 11.0833C12.5376 11.0833 12.0342 11.2919 11.663 11.663C11.2919 12.0342 11.0833 12.5376 11.0833 13.0625C11.0833 13.5874 11.2919 14.0908 11.663 14.462C12.0342 14.8332 12.5376 15.0417 13.0625 15.0417C13.5874 15.0417 14.0908 14.8332 14.462 14.462C14.8331 14.0908 15.0417 13.5874 15.0417 13.0625C15.0417 12.5376 14.8331 12.0342 14.462 11.663C14.0908 11.2919 13.5874 11.0833 13.0625 11.0833ZM7.91667 1.58334H11.0833C11.5033 1.58334 11.906 1.75016 12.2029 2.04709C12.4999 2.34402 12.6667 2.74675 12.6667 3.16668V4.75001H15.8333C16.2533 4.75001 16.656 4.91682 16.9529 5.21376C17.2499 5.51069 17.4167 5.91342 17.4167 6.33334V10.3154C16.953 9.57995 16.3104 8.97411 15.5489 8.55459C14.7874 8.13507 13.9319 7.91559 13.0625 7.91668C11.6977 7.91668 10.3889 8.45883 9.42385 9.42386C8.45882 10.3889 7.91667 11.6978 7.91667 13.0625C7.91667 14.4479 8.46292 15.6988 9.34959 16.625H3.16667C2.74674 16.625 2.34402 16.4582 2.04708 16.1613C1.75015 15.8643 1.58334 15.4616 1.58334 15.0417V6.33334C1.58334 5.45459 2.28792 4.75001 3.16667 4.75001H6.33334V3.16668C6.33334 2.28793 7.03792 1.58334 7.91667 1.58334ZM11.0833 4.75001V3.16668H7.91667V4.75001H11.0833Z" fill="white"/>
</svg>
