<svg width="267" height="39" viewBox="0 0 267 39" fill="none" xmlns="http://www.w3.org/2000/svg">
<path d="M61.0145 0.422852H49.9796L44.4622 10.081L49.9796 19.7391H61.0145L66.532 10.081L61.0145 0.422852Z" fill="#48337B"/>
<path d="M55.442 0.422852H44.4071L38.8896 10.081L44.4071 19.7391H55.442L60.9595 10.081L55.442 0.422852Z" fill="#484483"/>
<path d="M49.9794 0.422852H38.9991L33.4817 10.081L38.9991 19.7391H49.9794L55.4969 10.081L49.9794 0.422852Z" fill="#49558C"/>
<path d="M46.3739 6.82462H35.339L29.8215 16.4276L35.339 26.0857H46.3739L51.8914 16.4276L46.3739 6.82462Z" fill="#496796"/>
<path d="M42.7142 13.0613H31.6793L26.1619 22.7194L31.6793 32.3224H42.7142L48.2317 22.7194L42.7142 13.0613Z" fill="#4A789F"/>
<path d="M38.9996 19.6837H27.9647L22.4473 29.3419L27.9647 39H38.9996L44.4625 29.3419L38.9996 19.6837Z" fill="#4A88A8"/>
<path d="M35.2296 13.0613H24.1947L18.6772 22.7194L24.1947 32.3224H35.2296L40.7471 22.7194L35.2296 13.0613Z" fill="#4B99B1"/>
<path d="M31.5153 6.65912H20.4803L14.9629 16.3173L20.4803 25.9754H31.5153L37.0327 16.3173L31.5153 6.65912Z" fill="#4BAABA"/>
<path d="M27.9642 0.422852H16.9293L11.4119 10.081L16.9293 19.7391H27.9642L33.4817 10.081L27.9642 0.422852Z" fill="#4CBBC3"/>
<path d="M24.3043 6.8802H13.2694L7.75195 16.4832L13.2694 26.1413H24.3043L29.8218 16.4832L24.3043 6.8802Z" fill="#4CCDCD"/>
<path d="M20.7533 13.0613H9.71839L4.20093 22.7194L9.71839 32.3224H20.7533L26.2708 22.7194L20.7533 13.0613Z" fill="#4DDED6"/>
<path d="M16.9293 19.6837H5.89441L0.376953 29.3419L5.89441 39H16.9293L22.4468 29.3419L16.9293 19.6837Z" fill="#4DEFDF"/>
<path d="M98.1071 29.6179C97.8886 29.8387 97.6701 29.8939 97.3423 29.8939H94.6655C94.3924 29.8939 94.1192 29.8387 93.9007 29.7283C93.6822 29.6179 93.4637 29.3972 93.2452 29.0109L87.0722 18.2489C86.9629 18.0834 86.9083 18.0282 86.8537 18.0282C86.7444 18.0282 86.7444 18.0834 86.7444 18.2489V29.342C86.7444 29.5076 86.6898 29.6179 86.5805 29.7283C86.4713 29.8387 86.362 29.8939 86.1981 29.8939H83.0297C82.8658 29.8939 82.7565 29.8387 82.6473 29.7283C82.538 29.6179 82.4834 29.5076 82.4834 29.342V10.6328C82.4834 10.3568 82.5927 10.0809 82.7565 9.91533C82.9751 9.69458 83.1936 9.63939 83.4667 9.63939H86.1981C86.4713 9.63939 86.6898 9.69458 86.8537 9.86014C87.0175 9.97052 87.1814 10.1913 87.3453 10.5224L93.7915 21.7259C93.9007 21.8914 93.9553 21.9466 94.01 21.9466C94.1192 21.9466 94.1192 21.8914 94.1192 21.7259V10.1361C94.1192 9.97052 94.1739 9.86014 94.2831 9.74977C94.3924 9.63939 94.5016 9.5842 94.6655 9.5842H97.8339C97.9978 9.5842 98.1071 9.63939 98.2164 9.74977C98.3256 9.86014 98.3802 9.97052 98.3802 10.1361V28.9005C98.4349 29.1764 98.3256 29.3972 98.1071 29.6179Z" fill="#3A2A68"/>
<path d="M113.949 29.7836C113.458 29.8388 112.857 29.9492 112.092 30.0044C111.327 30.0596 110.18 30.1147 108.705 30.1147C107.831 30.1147 107.011 30.0596 106.192 29.894C105.373 29.7284 104.717 29.4525 104.062 29.011C103.461 28.5694 102.969 27.9624 102.587 27.2449C102.204 26.4722 102.04 25.4788 102.04 24.2647V15.2136C102.04 13.9994 102.204 12.9509 102.587 12.2334C102.969 11.4607 103.461 10.8537 104.062 10.4673C104.662 10.0258 105.373 9.74987 106.192 9.63949C107.011 9.47392 107.831 9.41873 108.705 9.41873C109.47 9.41873 110.071 9.41873 110.617 9.47392C111.163 9.47392 111.655 9.52911 112.037 9.5843C112.474 9.63949 112.802 9.63949 113.13 9.69468C113.403 9.74987 113.676 9.74987 113.949 9.80506C114.332 9.86025 114.496 10.0258 114.496 10.357V12.8957C114.496 13.0612 114.441 13.1716 114.332 13.282C114.222 13.3924 114.113 13.4476 113.949 13.4476H108.432C107.776 13.4476 107.339 13.5579 107.066 13.8339C106.793 14.1098 106.684 14.6065 106.684 15.2688V17.7523H113.676C113.84 17.7523 113.949 17.8075 114.059 17.9179C114.168 18.0283 114.222 18.1387 114.222 18.3042V20.8429C114.222 21.0085 114.168 21.1189 114.059 21.2293C113.949 21.3396 113.84 21.3948 113.676 21.3948H106.684V24.2647C106.684 24.9821 106.793 25.4788 107.066 25.6996C107.339 25.9755 107.776 26.0859 108.432 26.0859H113.949C114.113 26.0859 114.222 26.1411 114.332 26.2515C114.441 26.3619 114.496 26.4722 114.496 26.6378V29.1765C114.496 29.5628 114.332 29.7284 113.949 29.7836Z" fill="#3A2A68"/>
<path d="M132.796 25.4236C132.359 26.5274 131.813 27.4656 131.103 28.1279C130.393 28.8454 129.519 29.3421 128.535 29.6732C127.552 30.0044 126.514 30.1699 125.422 30.1699C124.329 30.1699 123.236 30.0044 122.308 29.6732C121.324 29.3421 120.505 28.8454 119.74 28.1279C119.03 27.4105 118.429 26.5274 118.047 25.4236C117.61 24.3198 117.446 22.9401 117.446 21.3948V18.1386C117.446 16.5381 117.664 15.2136 118.047 14.1098C118.484 13.006 119.03 12.0678 119.74 11.4055C120.45 10.6881 121.324 10.1914 122.308 9.86023C123.291 9.52909 124.329 9.36353 125.422 9.36353C126.514 9.36353 127.607 9.52909 128.535 9.86023C129.519 10.1914 130.338 10.6881 131.103 11.4055C131.813 12.123 132.414 13.006 132.796 14.1098C133.233 15.2136 133.397 16.5933 133.397 18.1386V21.3948C133.452 22.9401 133.233 24.3198 132.796 25.4236ZM128.808 18.1386C128.808 16.483 128.535 15.2688 127.989 14.5513C127.443 13.8339 126.569 13.4475 125.476 13.4475C124.329 13.4475 123.51 13.8339 122.963 14.5513C122.417 15.2688 122.144 16.483 122.144 18.1386V21.3948C122.144 23.0505 122.417 24.2647 122.963 24.9821C123.51 25.6996 124.329 26.0859 125.476 26.0859C126.623 26.0859 127.443 25.6996 127.989 24.9821C128.535 24.2647 128.808 23.0505 128.808 21.3948V18.1386Z" fill="#3A2A68"/>
<path d="M157.924 19.3528C157.487 20.1806 156.832 20.8981 156.122 21.3948C155.357 21.8915 154.483 22.2778 153.554 22.4986C152.571 22.7194 151.588 22.8297 150.604 22.8297C150.276 22.8297 149.894 22.8297 149.512 22.8297C149.129 22.8297 148.747 22.7745 148.419 22.7745V29.3973C148.419 29.5628 148.364 29.6732 148.255 29.7836C148.146 29.894 148.037 29.9492 147.873 29.9492H144.377C144.213 29.9492 144.103 29.894 143.994 29.7836C143.885 29.6732 143.83 29.5628 143.83 29.3973V11.0192C143.83 10.5225 143.94 10.2466 144.103 10.081C144.322 9.91542 144.595 9.80504 145.032 9.74985C145.742 9.63947 146.562 9.52909 147.545 9.4739C148.528 9.41871 149.512 9.36353 150.495 9.36353C151.533 9.36353 152.516 9.4739 153.5 9.63947C154.483 9.86023 155.357 10.1914 156.122 10.6881C156.886 11.1848 157.487 11.847 157.924 12.7301C158.361 13.5579 158.635 14.6617 158.635 15.9311V16.1518C158.635 17.4764 158.416 18.525 157.924 19.3528ZM153.991 15.9311C153.991 14.9377 153.718 14.2754 153.117 13.8339C152.516 13.4475 151.697 13.2268 150.55 13.2268C150.44 13.2268 150.331 13.2268 150.113 13.2268C149.894 13.2268 149.676 13.2268 149.457 13.2268C149.239 13.2268 149.02 13.2268 148.802 13.2268C148.583 13.2268 148.474 13.2268 148.364 13.2268V18.8009C148.419 18.8009 148.583 18.8009 148.802 18.8009C149.02 18.8009 149.239 18.8009 149.457 18.8009C149.676 18.8009 149.949 18.8009 150.113 18.8009C150.331 18.8009 150.44 18.8009 150.55 18.8009C151.751 18.8009 152.625 18.5801 153.172 18.1386C153.718 17.6971 153.991 16.9797 153.991 16.0414V15.9311Z" fill="#3A2A68"/>
<path d="M176.936 29.5629C176.936 29.7836 176.826 29.894 176.553 29.894H172.401C172.238 29.894 172.128 29.8388 172.074 29.7284C172.019 29.6181 171.91 29.5077 171.855 29.3421L168.25 22.4434H167.977C167.703 22.4434 167.376 22.4434 166.993 22.4434C166.611 22.4434 166.338 22.3883 166.065 22.3883V29.3421C166.065 29.5077 166.01 29.6181 165.901 29.7284C165.791 29.8388 165.682 29.894 165.518 29.894H161.967C161.804 29.894 161.694 29.8388 161.585 29.7284C161.476 29.6181 161.421 29.5077 161.421 29.3421V11.0192C161.421 10.5225 161.53 10.2466 161.694 10.081C161.913 9.91545 162.186 9.80507 162.623 9.74988C162.951 9.6947 163.279 9.63951 163.716 9.63951C164.153 9.58432 164.59 9.58432 165.081 9.52913C165.573 9.47394 166.065 9.47394 166.556 9.47394C167.048 9.47394 167.594 9.47394 168.031 9.47394C169.178 9.47394 170.271 9.58432 171.254 9.80507C172.238 10.0258 173.112 10.357 173.822 10.8537C174.532 11.3504 175.133 12.0126 175.515 12.8405C175.952 13.6683 176.116 14.6617 176.116 15.8759V16.207C176.116 17.642 175.788 18.8561 175.133 19.7392C174.477 20.6222 173.603 21.2845 172.62 21.6708L176.717 29.3973C176.936 29.3973 176.936 29.5077 176.936 29.5629ZM171.637 15.7655C171.637 14.9377 171.309 14.3306 170.708 13.9443C170.107 13.558 169.233 13.3372 168.086 13.3372C167.977 13.3372 167.867 13.3372 167.649 13.3372C167.43 13.3372 167.212 13.3372 166.993 13.3372C166.775 13.3372 166.556 13.3372 166.392 13.3372C166.228 13.3372 166.065 13.3372 165.955 13.3372V18.6354C166.01 18.6354 166.174 18.6354 166.338 18.6354C166.502 18.6354 166.72 18.6354 166.939 18.6354C167.157 18.6354 167.321 18.6354 167.54 18.6354C167.703 18.6354 167.867 18.6354 167.922 18.6354C168.632 18.6354 169.178 18.5802 169.67 18.4698C170.162 18.3594 170.544 18.1939 170.817 18.0283C171.09 17.8075 171.309 17.5868 171.418 17.2005C171.527 16.8693 171.582 16.483 171.582 15.9863V15.7655H171.637Z" fill="#3A2A68"/>
<path d="M194.745 25.4236C194.308 26.5274 193.761 27.4656 193.051 28.1279C192.341 28.8454 191.467 29.3421 190.484 29.6732C189.5 30.0044 188.462 30.1699 187.37 30.1699C186.277 30.1699 185.185 30.0044 184.256 29.6732C183.273 29.3421 182.453 28.8454 181.688 28.1279C180.978 27.4105 180.377 26.5274 179.995 25.4236C179.558 24.3198 179.394 22.9401 179.394 21.3948V18.1386C179.394 16.5381 179.613 15.2136 179.995 14.1098C180.432 13.006 180.978 12.0678 181.688 11.4055C182.399 10.6881 183.273 10.1914 184.256 9.86023C185.239 9.52909 186.277 9.36353 187.37 9.36353C188.462 9.36353 189.555 9.52909 190.484 9.86023C191.467 10.1914 192.286 10.6881 193.051 11.4055C193.761 12.123 194.362 13.006 194.745 14.1098C195.182 15.2136 195.345 16.5933 195.345 18.1386V21.3948C195.345 22.9401 195.182 24.3198 194.745 25.4236ZM190.757 18.1386C190.757 16.483 190.484 15.2688 189.937 14.5513C189.391 13.8339 188.517 13.4475 187.424 13.4475C186.277 13.4475 185.458 13.8339 184.911 14.5513C184.365 15.2688 184.092 16.483 184.092 18.1386V21.3948C184.092 23.0505 184.365 24.2647 184.911 24.9821C185.458 25.6996 186.277 26.0859 187.424 26.0859C188.572 26.0859 189.391 25.6996 189.937 24.9821C190.484 24.2647 190.757 23.0505 190.757 21.3948V18.1386Z" fill="#3A2A68"/>
<path d="M202.939 32.3774C202.666 32.9845 202.338 33.4812 201.901 33.8123C201.464 34.1435 200.973 34.4194 200.372 34.585C199.771 34.7505 199.17 34.8057 198.46 34.8057C198.132 34.8057 197.859 34.8057 197.64 34.8057C197.422 34.8057 197.094 34.7505 196.711 34.7505C196.438 34.6954 196.329 34.585 196.329 34.309V31.4944C196.329 31.384 196.384 31.3288 196.384 31.2184C196.438 31.1632 196.493 31.1081 196.602 31.1081H197.968C198.296 31.1081 198.46 31.0529 198.569 30.8873C198.623 30.7217 198.678 30.501 198.678 30.1146V10.1361C198.678 9.97052 198.733 9.86014 198.842 9.74977C198.951 9.63939 199.061 9.5842 199.224 9.5842H202.775C202.939 9.5842 203.048 9.63939 203.158 9.74977C203.267 9.86014 203.322 9.97052 203.322 10.1361V30.1146C203.322 30.9977 203.212 31.7703 202.939 32.3774Z" fill="#3A2A68"/>
<path d="M218.891 29.7836C218.399 29.8388 217.798 29.9492 217.033 30.0044C216.268 30.0596 215.121 30.1147 213.646 30.1147C212.772 30.1147 211.953 30.0596 211.133 29.894C210.314 29.7284 209.658 29.4525 209.003 29.011C208.402 28.5694 207.91 27.9624 207.528 27.2449C207.146 26.4722 206.982 25.4788 206.982 24.2647V15.2136C206.982 13.9994 207.146 12.9509 207.528 12.2334C207.91 11.4607 208.402 10.8537 209.003 10.4673C209.604 10.0258 210.314 9.74987 211.133 9.63949C211.953 9.47392 212.772 9.41873 213.646 9.41873C214.411 9.41873 215.012 9.41873 215.558 9.47392C216.105 9.47392 216.596 9.52911 216.979 9.5843C217.416 9.63949 217.743 9.63949 218.071 9.69468C218.344 9.74987 218.618 9.74987 218.891 9.80506C219.273 9.86025 219.437 10.0258 219.437 10.357V12.8957C219.437 13.0612 219.382 13.1716 219.273 13.282C219.164 13.3924 219.055 13.4476 218.891 13.4476H213.373C212.718 13.4476 212.281 13.5579 212.007 13.8339C211.734 14.1098 211.625 14.6065 211.625 15.2688V17.7523H218.618C218.781 17.7523 218.891 17.8075 219 17.9179C219.109 18.0283 219.164 18.1387 219.164 18.3042V20.8429C219.164 21.0085 219.109 21.1189 219 21.2293C218.891 21.3396 218.781 21.3948 218.618 21.3948H211.625V24.2647C211.625 24.9821 211.734 25.4788 212.007 25.6996C212.281 25.9755 212.718 26.0859 213.373 26.0859H218.891C219.055 26.0859 219.164 26.1411 219.273 26.2515C219.382 26.3619 219.437 26.4722 219.437 26.6378V29.1765C219.437 29.5628 219.218 29.7284 218.891 29.7836Z" fill="#3A2A68"/>
<path d="M234.841 29.5077C234.732 29.5629 234.568 29.6732 234.404 29.7284C234.131 29.8388 233.585 29.894 232.875 30.0044C232.164 30.1147 231.29 30.1699 230.362 30.1699C229.324 30.1699 228.34 30.0044 227.357 29.7284C226.374 29.4525 225.554 28.9558 224.79 28.2935C224.025 27.6312 223.478 26.693 222.987 25.5892C222.55 24.4854 222.331 23.1057 222.331 21.5052V18.0835C222.331 16.483 222.55 15.1032 222.987 13.9995C223.424 12.8957 224.025 12.0126 224.79 11.2952C225.554 10.6329 226.374 10.1362 227.357 9.86025C228.34 9.5843 229.324 9.41873 230.362 9.41873C231.29 9.41873 232.164 9.47392 232.875 9.5843C233.585 9.69468 234.076 9.80506 234.404 9.86025C234.623 9.91544 234.732 9.97063 234.841 10.0258C234.95 10.081 235.005 10.2466 235.005 10.4121V13.1164C235.005 13.5027 234.841 13.6683 234.513 13.6683H234.459C233.913 13.6131 233.312 13.6131 232.656 13.5579C231.946 13.5027 231.236 13.5027 230.471 13.5027C229.979 13.5027 229.542 13.5579 229.16 13.7235C228.777 13.8339 228.395 14.1098 228.067 14.441C227.74 14.7721 227.521 15.2688 227.357 15.8759C227.193 16.483 227.084 17.2004 227.084 18.1387V21.5604C227.084 22.4434 227.193 23.2161 227.357 23.8232C227.521 24.4302 227.794 24.8718 228.067 25.2581C228.395 25.5892 228.723 25.8652 229.16 25.9755C229.542 26.0859 229.979 26.1963 230.471 26.1963C231.236 26.1963 231.946 26.1963 232.656 26.1411C233.366 26.0859 233.967 26.0307 234.459 26.0307H234.513C234.841 26.0307 235.005 26.1963 235.005 26.5826V29.2317C234.95 29.2869 234.896 29.3973 234.841 29.5077Z" fill="#3A2A68"/>
<path d="M251.121 13.282C251.011 13.3924 250.847 13.4476 250.738 13.4476H246.368V29.3421C246.368 29.5077 246.313 29.618 246.204 29.7284C246.095 29.8388 245.986 29.894 245.822 29.894H242.271C242.107 29.894 241.998 29.8388 241.888 29.7284C241.779 29.618 241.725 29.5077 241.725 29.3421V13.4476H237.3C237.136 13.4476 237.027 13.3924 236.917 13.282C236.808 13.1716 236.753 13.0612 236.753 12.8957V10.081C236.753 9.91544 236.808 9.80506 236.917 9.69468C237.027 9.5843 237.136 9.52911 237.3 9.52911H250.738C250.902 9.52911 251.011 9.5843 251.121 9.69468C251.23 9.80506 251.285 9.91544 251.285 10.081V12.8957C251.285 13.0612 251.23 13.2268 251.121 13.282Z" fill="#3A2A68"/>
<path d="M266.744 24.1543C266.744 24.8718 266.635 25.5892 266.362 26.3067C266.089 27.0241 265.706 27.6312 265.105 28.2383C264.504 28.7902 263.74 29.2869 262.811 29.618C261.882 29.9492 260.735 30.1699 259.369 30.1699C258.277 30.1699 257.348 30.1147 256.529 30.0044C255.709 29.894 254.945 29.7284 254.289 29.5629C254.125 29.5077 254.016 29.4525 253.907 29.3973C253.797 29.2869 253.743 29.1765 253.743 29.0662V26.3619C253.743 26.1411 253.797 26.0307 253.852 25.9755C253.961 25.9204 254.07 25.8652 254.18 25.8652H254.234C254.508 25.8652 254.89 25.9204 255.382 25.9755C255.873 26.0307 256.365 26.0307 256.857 26.0859C257.348 26.1411 257.84 26.1411 258.277 26.1411C258.714 26.1411 259.096 26.1963 259.369 26.1963C260.298 26.1963 260.954 26.0307 261.281 25.7548C261.609 25.4237 261.773 24.9821 261.773 24.3199C261.773 23.9335 261.664 23.6024 261.391 23.2713C261.172 22.9953 260.681 22.6642 259.97 22.2227L256.256 19.9599C255.6 19.5736 255.108 19.1873 254.726 18.8009C254.344 18.4146 254.016 17.9731 253.743 17.5316C253.524 17.0901 253.306 16.6485 253.251 16.1518C253.142 15.7103 253.087 15.2136 253.087 14.7169C253.087 13.9443 253.196 13.282 253.415 12.6197C253.633 11.9574 254.016 11.4055 254.562 10.9088C255.108 10.4121 255.819 10.081 256.693 9.80506C257.567 9.52911 258.659 9.41873 259.97 9.41873C260.462 9.41873 261.008 9.41873 261.555 9.47392C262.101 9.52911 262.647 9.52911 263.193 9.5843C263.74 9.63949 264.177 9.69468 264.668 9.74987C265.105 9.80506 265.488 9.91544 265.706 9.97063C265.816 10.0258 265.925 10.081 265.979 10.1362C266.034 10.1914 266.089 10.3018 266.089 10.4673V13.2268C266.089 13.3372 266.034 13.4476 265.979 13.5579C265.925 13.6683 265.816 13.6683 265.597 13.6683H265.542C265.379 13.6683 265.051 13.6131 264.614 13.6131C264.177 13.6131 263.685 13.5579 263.084 13.5027C262.538 13.4476 261.937 13.4476 261.391 13.3924C260.79 13.3924 260.298 13.3372 259.806 13.3372C259.042 13.3372 258.495 13.4476 258.168 13.6683C257.84 13.8891 257.676 14.2754 257.676 14.7721C257.676 15.1584 257.785 15.4896 258.058 15.7103C258.277 15.9311 258.769 16.2622 259.479 16.7037L262.92 18.5802C264.341 19.3528 265.269 20.1807 265.816 21.1189C266.471 22.0571 266.744 23.0505 266.744 24.1543Z" fill="#3A2A68"/>
</svg>
