<svg width="109" height="137" viewBox="0 0 109 137" fill="none" xmlns="http://www.w3.org/2000/svg">
<path d="M57.4388 55.0688C60.0629 53.6109 61.8124 51.5699 62.1039 49.5289C62.3955 48.0711 62.1039 46.6132 60.9376 45.7385C58.6051 43.1144 55.3978 43.9891 52.4821 45.1554L51.8989 45.4469L56.8556 55.3604L57.4388 55.0688Z" fill="white"/>
<path d="M34.6976 125.92H24.7842V135.833H34.6976V125.92Z" fill="white"/>
<path d="M26.5321 125.046H35.5708V130.294H93.0104V125.046H94.1767L93.5935 123.88C84.2632 106.677 91.2609 89.1828 98.2586 72.2716C105.548 54.4857 112.254 37.5746 102.341 20.3719L102.049 20.0803H93.0104V14.832H81.6391L81.9306 15.7068C82.8054 19.4972 82.5138 23.5792 81.0559 27.078C78.7234 32.9095 73.4751 37.2831 67.0605 38.4493C63.2701 39.0325 59.4796 38.7409 56.2724 37.283C51.6072 35.242 47.8168 31.7432 45.7758 27.078C45.4842 26.7865 45.4842 26.2033 45.1926 25.6202L44.6095 23.5792L43.7348 25.6202C43.7348 25.9117 43.4432 26.2033 43.4432 26.4949C42.5685 28.8275 41.1106 30.8685 39.3612 32.6179L39.0696 32.9095V33.201C39.3612 36.4083 39.3612 39.9072 39.0696 43.6976V44.2808L39.6528 44.5723C43.4432 46.0302 47.5252 45.7386 51.3156 44.2808H51.6072C54.8145 43.1145 58.8965 41.365 61.5206 44.5723C62.6869 45.7386 63.2701 47.488 62.9785 49.2375C62.3953 51.57 60.3543 54.1942 57.1471 55.652L56.8555 55.9436C56.8555 55.9436 56.5639 55.9436 56.5639 56.2352C50.4409 58.8593 43.7348 59.1509 37.3202 57.4015L36.7371 57.1099L36.4455 57.693C34.6961 62.6497 32.9466 67.3149 30.9056 72.2716C23.6163 90.0575 16.9102 106.969 26.8236 124.171L26.5321 125.046Z" fill="#24FE7C"/>
<path d="M32.6556 43.989C31.1978 43.989 30.0315 44.5722 28.8652 45.7385C27.6989 46.9047 27.4073 48.3626 27.6989 49.8204C27.9905 51.8614 29.7399 53.9025 32.3641 55.3603L32.9472 55.6519L37.9039 45.7385L37.3208 45.4469C35.8629 44.5722 34.1135 43.989 32.6556 43.989Z" fill="white"/>
<path d="M28.8664 2.29325L27.9917 2.00171V37.865L28.8664 37.5734C37.6136 36.1156 43.7366 28.5347 43.7366 19.7875C43.7366 11.0404 37.6136 3.75111 28.8664 2.29325Z" fill="white"/>
<path d="M43.7363 57.9837H44.3194V46.9039H43.7363C42.2784 46.9039 40.529 46.6124 39.0711 46.0292L38.488 45.7377L33.5312 55.9427L34.1144 56.2342C37.3217 57.4005 40.529 57.9837 43.7363 57.9837Z" fill="white"/>
<path d="M50.4417 46.0302C48.9838 46.6133 47.5259 46.9049 45.7765 46.9049H45.1934V57.9846H45.7765C48.9838 57.9846 52.1911 57.1099 55.1068 55.9436L55.6899 55.652L50.7332 45.447L50.4417 46.0302Z" fill="white"/>
<path d="M32.3644 89.4735L0 85.3915L7.28929 95.8881V96.1797L6.123 108.717L32.3644 89.4735Z" fill="#3627DE"/>
<path d="M99.7173 73.1459C106.715 56.2347 113.713 38.4488 104.091 20.9545H104.966V8.12537H92.1364V13.3737H81.6398C79.8904 8.12538 75.8084 3.75181 70.5601 1.71081C69.1023 1.12767 67.936 0.836112 66.1865 0.54454C57.1478 -0.913317 48.1091 4.04337 44.6103 12.4989C44.6103 12.7905 44.3187 13.0821 44.3187 13.3737H44.0271C44.0271 13.0821 43.7356 12.7905 43.7356 12.2074C41.6945 7.25068 37.9041 3.46026 32.9474 1.41926C31.4896 0.836121 30.3233 0.544523 28.5738 0.252951C19.5351 -1.20491 10.4964 3.75183 6.99755 12.2074C4.95655 17.1641 4.95655 22.4124 6.99755 27.3691C9.03855 32.3258 12.829 36.1162 17.7857 38.1572C20.1183 39.032 22.7424 39.6151 25.3665 39.6151C26.5328 39.6151 27.9907 39.6151 29.157 39.3236C32.3643 38.7404 34.9884 37.2825 37.6126 35.5331C37.9041 38.1573 37.9041 41.073 37.6126 43.6971C34.4053 42.5308 30.6148 41.3645 27.6991 44.5718C26.2413 46.0297 25.6581 47.7791 26.2413 49.8201C26.8244 52.4442 29.157 55.0684 32.6558 56.8178C32.9474 56.8178 32.9474 57.1094 33.239 57.1094C33.5306 57.401 34.1137 57.401 34.4053 57.401C32.9474 62.3577 30.9064 67.0228 28.8654 71.9795C21.8677 88.8907 14.87 106.677 24.2003 124.171H23.034V137H35.8631V131.752H92.1364V137H104.966V124.171H95.3437C85.7218 107.551 92.428 90.6402 99.7173 73.1459ZM94.469 10.458H102.925V18.9136H94.469V10.458ZM66.1865 2.87712C74.3505 4.33498 80.4736 11.3327 80.4736 20.0798C80.4736 28.5354 74.3505 35.8247 66.1865 37.2825V2.87712ZM28.8654 37.2825V2.87712C37.0294 4.33498 43.1524 11.3327 43.1524 20.0798C43.1524 28.827 37.0294 35.8247 28.8654 37.2825ZM57.1478 54.4853L52.7743 45.7381C55.9815 44.5718 58.6057 43.9887 60.3551 46.0297C61.2298 46.9044 61.5214 48.0707 61.2298 49.237C61.2298 51.278 59.4804 53.319 57.1478 54.4853ZM50.7333 46.6128L55.1068 55.36C52.1911 56.5263 48.9838 57.1094 45.7765 57.401V47.4875C47.8175 47.4875 49.2754 47.196 50.7333 46.6128ZM44.0271 57.401C40.8198 57.401 37.9041 56.5263 34.6968 55.36L39.0704 46.6128C40.5283 47.196 42.2777 47.4875 44.0271 47.4875V57.401ZM28.5738 49.5286C28.2823 48.3623 28.5738 47.196 29.7401 46.3213C30.6148 45.155 31.7811 44.8634 32.9474 44.8634C34.1137 44.8634 35.8631 45.4465 37.321 46.0297L32.9474 54.7768C30.3233 53.3189 28.8654 51.278 28.5738 49.5286ZM34.1137 134.959H25.6581V126.503H34.1137V131.752V134.959ZM36.1547 129.711V124.462H26.8244C16.911 107.551 23.6171 90.9317 30.9064 73.1459C32.9474 68.1891 34.9884 63.2324 36.4463 58.5672C39.0704 59.442 41.9861 59.7336 44.9018 59.7336C48.9838 59.7336 52.7743 58.8588 56.2731 57.401C56.5647 57.401 56.5647 57.1094 56.8563 57.1094C60.3551 55.36 62.6877 53.0274 63.2708 50.1117C63.5624 48.0707 62.9793 46.3213 61.813 44.8634C58.6057 41.3645 54.2321 43.114 51.0248 44.2803H50.7333C47.2344 45.7381 43.1524 45.7381 39.6535 44.5718C39.9451 41.0729 40.2367 37.5741 39.6535 34.0753C41.403 32.3258 42.8608 29.9933 43.7356 27.6607C44.0271 27.3691 44.0271 26.786 44.0271 26.4944C44.3187 27.0775 44.3187 27.3691 44.6103 27.9522C46.6513 32.909 50.4417 36.6994 55.3984 38.7404C57.731 39.6151 60.3551 40.1982 62.9793 40.1982C64.1456 40.1982 65.6034 40.1983 66.7697 39.9067C73.1843 38.4488 78.7241 34.0752 81.3483 27.9522C83.0977 24.1618 83.0977 19.7883 82.223 15.9978H92.1364V21.2461H101.467C111.38 38.1572 104.674 54.7768 97.3847 72.5627C90.387 89.4738 83.3893 107.26 92.7196 124.754H91.8448V130.002H36.1547V129.711ZM102.925 134.959H94.469V126.503H102.925V134.959Z" fill="#3627DE"/>
</svg>
