<svg width="235" height="235" viewBox="0 0 235 235" fill="none" xmlns="http://www.w3.org/2000/svg">
<path d="M77.8192 121.442C84.5618 117.834 89.2179 111.617 90.4821 103.832L90.6131 102.658L70.2598 100.389L76.6013 121.702L77.8192 121.442Z" fill="white"/>
<path d="M91.4091 100.579C92.0253 87.5904 82.0627 76.1922 68.5016 74.6801C54.9405 73.1679 42.7121 82.0918 40.4521 94.8968L40.3214 96.0692L91.6892 101.797L91.4091 100.579Z" fill="#24FE7C"/>
<path d="M93.0183 148.446C88.7906 147.974 86.0642 151.486 86.0222 151.863C86.0222 151.863 85.9802 152.24 85.5959 152.197L85.2114 152.155L84.8692 151.735L84.9112 151.358C84.9112 151.358 85.4215 150.27 86.7006 149.268L87.5954 148.223L86.4845 147.717C85.3735 147.212 83.4938 146.621 80.6773 147.451C78.6295 148.368 77.6927 149.79 76.7979 150.835L76.3296 151.546L77.4405 152.051C80.4312 153.148 83.8483 153.911 86.923 154.253C90.382 154.639 93.8832 154.648 97.4683 153.903L98.6633 153.655L98.4052 152.481C97.8466 150.511 95.7087 148.746 93.0183 148.446Z" fill="white"/>
<path d="M135.878 13.5052L122.31 11.9922L120.688 26.5302L134.257 28.0432L135.878 13.5052Z" fill="white"/>
<path d="M130.3 29.9697L129.939 29.5245L123.855 28.8461L84.8011 80.7757L84.3061 81.5304L84.6673 81.9756C88.3667 85.6275 90.3098 90.2983 91.3971 95.2786L91.8514 98.5686L93.0194 95.4595C96.8844 86.5772 104.988 80.1922 114.54 79.2327C116.613 79.0589 118.686 78.8851 120.308 79.066C134.91 80.6942 145.38 93.6044 143.774 108.003C142.793 116.801 137.439 124.303 129.559 128.688C124.785 130.99 119.739 132.047 114.466 131.459C102.703 130.148 93.0047 121.373 91.0085 109.812L90.554 106.522L89.3859 109.632C87.0945 115.45 82.4586 120.197 76.7842 123.209C69.3982 126.839 60.7467 127.089 53.3522 123.43L52.5855 122.94L17.4013 169.632L20.2404 169.949L19.4376 177.148L197.908 197.048L198.711 189.849L201.55 190.165L130.3 29.9697ZM97.7997 137.295C102.44 136.192 108.386 134.426 111.546 139.232C112.99 141.013 113.534 143.503 112.861 145.858C111.648 149.367 108.002 152.604 102.506 154.016C102.056 154.371 101.244 154.281 100.389 154.59L99.5327 154.9C89.8468 157.059 79.7511 155.528 71.2289 150.934C66.1789 148.346 63.3354 144.385 62.9255 140.695C62.7875 138.25 63.8217 136.34 65.6671 134.522C67.5126 132.703 69.5851 132.529 71.6132 132.755C74.4525 133.072 77.158 134.588 79.5025 135.659L79.9082 135.705C85.3193 138.737 91.809 139.461 97.7997 137.295Z" fill="#24FE7C"/>
<path d="M79.8435 136.892C77.0903 135.342 74.2914 134.201 71.8142 133.925C69.7499 133.695 68.0072 134.329 66.1732 135.782C64.3392 137.235 63.6981 139.235 63.8828 141.327C64.3435 144.693 67.2358 148.744 71.9621 151.342C72.3294 151.798 73.155 151.89 73.5222 152.345L75.1281 152.938L75.6322 152.166C76.1819 150.984 77.6487 149.076 80.3084 147.716C84.6653 146.13 87.4185 147.68 88.5658 148.636L88.9332 149.092L89.3916 148.728C90.7215 148.048 92.0057 147.777 93.6572 147.961C98.1988 148.468 99.898 151.971 100.496 154.11L100.817 154.974L102.102 154.703C102.514 154.749 102.514 154.749 102.973 154.386C108.156 152.892 111.824 149.987 113.06 146.396C113.701 144.396 113.516 142.304 112.002 140.892C109.109 136.841 104.431 137.562 98.8354 139.009L98.4226 138.963C91.9558 140.728 85.3499 139.992 79.8435 136.892Z" fill="white"/>
<path d="M129.653 127.221C136.694 123.647 141.536 117.45 142.819 109.668L142.95 108.494L121.628 106.116L128.379 127.475L129.653 127.221Z" fill="white"/>
<path d="M142.786 106.307C143.418 93.3208 133.665 81.946 120.359 80.4624C107.054 78.9788 95.035 87.926 92.7906 100.733L92.6598 101.905L143.058 107.525L142.786 106.307Z" fill="#24FE7C"/>
<path d="M128.217 180.184L91.6665 207.193L109.262 210.791L120.389 224.711L128.217 180.184Z" fill="#3627DE"/>
<path d="M97.8873 136.718C91.9612 138.511 85.9015 137.835 80.9199 134.826L80.5158 134.781C76.2521 132.669 70.4625 129.57 65.478 133.922C63.2328 135.717 62.1546 138.051 62.6472 140.969C63.0047 145.099 66.2352 149.14 71.6208 152.195C76.2435 154.755 81.7643 156.598 87.0161 157.183C91.46 157.679 95.9941 157.366 100.169 156.605C100.169 156.605 100.169 156.605 100.573 156.65C101.426 156.336 102.234 156.426 103.087 156.112C108.609 154.274 112.65 151.043 113.909 147.094C114.628 144.311 114.091 141.797 112.7 139.597C108.842 133.849 102.511 135.597 97.8873 136.718ZM77.4119 151.613C77.951 150.446 78.8941 149.324 81.0492 148.338C83.2043 147.351 85.1791 147.98 86.3461 148.519C84.999 149.596 84.46 150.763 84.46 150.763C83.9659 151.526 84.2798 152.379 85.0428 152.873C85.8057 153.367 86.6587 153.053 87.1528 152.29C87.1528 152.29 89.6232 148.476 93.6631 148.926C96.895 149.287 98.2406 151.891 98.8684 153.597C91.3263 155.21 84.0545 154.399 77.4119 151.613ZM111.216 145.566C110.048 148.708 106.904 151.221 102.235 152.745C101.831 152.7 101.382 153.059 100.978 153.014C100.396 150.904 98.4223 146.594 93.1704 146.008C91.5545 145.828 89.8933 146.052 88.5912 146.725C87.4694 145.782 84.4629 143.401 79.7037 145.734C76.6955 147.034 75.6622 148.964 74.674 150.49C73.9111 149.996 73.1031 149.906 72.7442 149.457C68.5255 146.941 65.6089 143.753 65.5653 140.476C65.3415 138.815 65.9258 137.244 67.6769 136.212C69.069 134.732 70.7299 134.508 72.3459 134.688C74.3658 134.913 76.6996 135.991 79.3924 137.519L79.7966 137.564C85.5861 140.663 92.454 141.429 98.7841 139.681L99.188 139.726C104.665 138.292 108.436 137.485 110.904 141.032C111.577 142.334 111.8 143.995 111.216 145.566Z" fill="#3627DE"/>
<path d="M203.583 190.223L132.72 29.7593L135.548 30.0747L137.485 12.7031L119.709 10.721L117.727 28.4966L120.555 28.8119L83.9053 78.715C79.8218 74.9876 74.7953 72.3821 68.7355 71.7064C66.7155 71.4812 64.6505 71.6599 62.5856 71.8387C49.7465 73.2702 39.6426 83.1869 38.2011 96.1145C36.9848 107.022 42.3674 117.439 51.2087 122.515L16.9398 169.411L4.82007 168.06L2.83802 185.835L20.6134 187.817L21.4243 180.546L197.16 200.141L196.349 207.413L214.125 209.395L216.107 191.619L203.583 190.223ZM122.625 13.9093L134.341 15.2157L133.035 26.9314L121.319 25.625L122.625 13.9093ZM41.5681 95.2629C43.7725 82.8294 55.4024 73.9008 68.3301 75.3423C81.2577 76.7838 90.6353 88.0547 90.0469 100.669L41.5681 95.2629ZM89.7315 103.496C88.5167 110.723 83.7109 117.141 77.1555 120.909L71.1479 101.424L89.7315 103.496ZM17.7419 184.225L6.02637 182.919L7.33272 171.203L19.0483 172.509L17.7419 184.225ZM21.3807 177.269L22.1916 169.997L20.1716 169.772L53.8565 124.446C56.5943 125.569 59.3322 126.693 62.5641 127.053C67.816 127.639 73.2481 126.608 78.0073 124.276C84.0686 121.271 88.3351 116.02 91.0307 110.186C93.0014 121.858 102.559 131.513 115.083 132.909C120.335 133.495 125.767 132.464 130.526 130.132C138.787 125.736 144.177 117.748 145.213 108.456C146.88 93.5082 136.157 79.6331 120.805 77.9213C118.785 77.6961 116.72 77.8749 114.655 78.0536C104.285 79.3514 96.2024 85.8124 92.3384 94.7888C91.308 89.3568 88.9305 85.0016 85.7001 80.9602L124.236 28.8133L129.084 29.3539L199.947 189.817L197.927 189.592L197.116 196.864L21.3807 177.269ZM94.0868 101.119C96.2912 88.6854 107.921 79.7568 120.849 81.1983C133.776 82.6398 143.154 93.9108 142.566 106.525L94.0868 101.119ZM142.25 109.352C141.035 116.579 136.23 122.997 129.674 126.765L123.667 107.28L142.25 109.352ZM211.253 205.802L199.537 204.496L200.844 192.78L212.559 194.087L211.253 205.802Z" fill="#3627DE"/>
</svg>
