<svg width="154" height="56" viewBox="0 0 154 56" fill="none" xmlns="http://www.w3.org/2000/svg">
<g clip-path="url(#clip0_375_28)">
<path d="M48.0417 36.8387C44.568 44.7697 36.6375 50.3039 27.3962 50.3039C14.9652 50.3039 4.8719 40.2377 4.8719 27.8402C4.8719 15.4426 14.9434 5.37638 27.3962 5.37638C37.8828 5.37638 46.709 12.523 49.1996 22.2188C50.0298 21.9355 50.9037 21.783 51.8431 21.783C52.6514 21.783 53.4598 21.9137 54.2026 22.1316C51.5591 9.77762 40.57 0.517578 27.3962 0.517578C12.2781 0.517578 0 12.7626 0 27.8402C0 42.9395 12.2781 55.1627 27.3962 55.1627C39.0407 55.1627 49.003 47.9072 52.9573 37.6885C52.5859 37.7321 52.2145 37.7756 51.8431 37.7756C50.4667 37.7974 49.1778 37.4488 48.0417 36.8387Z" fill="#F7C200"/>
<path d="M122.387 29.0603C122.125 28.581 121.797 28.1452 121.404 27.753C121.142 27.4915 120.88 27.2737 120.574 27.034C119.787 26.4675 118.826 25.901 117.69 25.3781C116.314 24.7244 115.287 24.1797 114.588 23.7222C113.889 23.2864 113.539 22.6545 113.539 21.8919C113.539 21.2383 113.779 20.7154 114.238 20.3014C114.719 19.8874 115.396 19.6913 116.27 19.6913C117.122 19.6913 117.93 19.8003 118.739 20.0399C119.525 20.2578 120.421 20.5629 121.404 20.9768V16.7063C120.836 16.5102 120.268 16.3359 119.7 16.1834C118.651 15.9219 117.581 15.7912 116.423 15.7912C114.129 15.7912 112.316 16.3359 110.983 17.4253C109.65 18.5147 108.973 20.0399 108.973 22.0009C108.973 23.0031 109.148 23.8747 109.497 24.5719C109.847 25.2909 110.306 25.901 110.83 26.4021C111.376 26.9033 111.944 27.3172 112.534 27.6659C113.124 28.0145 113.692 28.2977 114.195 28.5374C115.025 28.9296 115.746 29.3 116.379 29.6268C117.013 29.9754 117.515 30.324 117.909 30.7162C118.28 31.1084 118.477 31.566 118.477 32.1325C118.477 32.8079 118.236 33.3526 117.756 33.8102C117.275 34.2459 116.467 34.4638 115.309 34.4638C114.195 34.4638 113.102 34.2677 111.966 33.8973C110.852 33.5269 109.76 33.1129 108.711 32.6554V36.9695C110.524 37.841 112.6 38.2768 114.916 38.2768C117.493 38.2768 119.482 37.7103 120.902 36.5555C121.055 36.4248 121.229 36.2722 121.36 36.1415C122.453 35.0303 122.999 33.6359 122.999 31.9146C123.043 30.7816 122.802 29.8229 122.387 29.0603Z" fill="#F7C200"/>
<path d="M135.212 37.013C134.556 37.5142 133.792 37.8846 132.983 38.1025C132.372 38.255 131.738 38.3203 131.104 38.3203C129.291 38.3203 127.849 37.841 126.779 36.8605C125.686 35.8801 125.14 34.3331 125.14 32.176V21.2601H129.728V31.043C129.728 32.2196 129.946 33.1347 130.383 33.7448C130.82 34.3549 131.498 34.6599 132.437 34.6599C133.835 34.6599 134.775 34.1806 135.299 33.2437C135.802 32.285 136.064 30.9341 136.064 29.1475V21.2601H140.652V37.9935H136.304V35.8365C136.042 36.294 135.627 36.6862 135.212 37.013Z" fill="#F7C200"/>
<path d="M153.279 21.2819C152.973 21.2601 152.711 21.2601 152.471 21.2601C151.335 21.2601 150.352 21.5651 149.478 22.1752C148.626 22.7853 147.752 23.5261 147.249 24.3758V21.2601H143.098V38.3203H147.686V29.8011C147.686 28.7335 147.905 27.9055 148.342 27.2954C148.779 26.6854 149.368 26.2278 150.089 25.9664C150.81 25.6831 151.553 25.5524 152.34 25.5524C152.536 25.5524 152.777 25.5742 153.061 25.596C153.345 25.6177 153.585 25.7049 154.022 25.8792V21.3908C153.825 21.3472 153.585 21.3037 153.279 21.2819Z" fill="#F7C200"/>
<path d="M72.4666 44.9004C72.1608 44.7261 71.7894 44.6172 71.3524 44.6172H69.2551V50.4782H70.0416V48.4519H71.3524C71.8112 48.4519 72.1826 48.3648 72.4666 48.1687C72.7725 47.9726 72.991 47.7329 73.1439 47.4497C73.2968 47.1664 73.3624 46.8396 73.3624 46.5346C73.3624 46.2077 73.2968 45.9027 73.1439 45.6194C72.991 45.3144 72.7725 45.0747 72.4666 44.9004ZM72.4666 47.1228C72.3793 47.3189 72.2263 47.4715 72.0515 47.5804C71.8768 47.7111 71.6365 47.7547 71.3524 47.7547H70.0416V45.2926H71.3524C71.6365 45.2926 71.8768 45.358 72.0515 45.4669C72.2263 45.5759 72.3793 45.7502 72.4666 45.9245C72.554 46.1206 72.5977 46.3167 72.5977 46.5128C72.5977 46.7089 72.554 46.9267 72.4666 47.1228Z" fill="#333333"/>
<path d="M75.3067 46.382C75.1319 46.5128 75.0008 46.6435 74.9134 46.796H74.8916V46.2731H74.127V50.4782H74.8916V48.2558C74.8916 47.7765 75.0008 47.4497 75.1975 47.2318C75.3941 47.0139 75.6781 46.9267 76.0495 46.9267C76.1369 46.9267 76.268 46.9267 76.4209 46.9485V46.2295C76.268 46.2077 76.1587 46.2077 76.0713 46.2077C75.7218 46.2077 75.4815 46.2513 75.3067 46.382Z" fill="#333333"/>
<path d="M79.8946 46.4256C79.5888 46.2077 79.2174 46.1206 78.7586 46.1206C78.2998 46.1206 77.9284 46.2295 77.6225 46.4256C77.3167 46.6435 77.0764 46.905 76.9234 47.2318C76.7705 47.5586 76.6831 47.9072 76.6831 48.2994C76.6831 48.6698 76.7705 49.0184 76.9234 49.3453C77.0764 49.6721 77.3167 49.9553 77.6225 50.1514C77.9284 50.3693 78.2998 50.4565 78.7586 50.4565C79.2174 50.4565 79.5888 50.3475 79.8946 50.1514C80.2005 49.9335 80.4408 49.6721 80.5937 49.3453C80.7467 49.0184 80.834 48.6698 80.834 48.2994C80.834 47.929 80.7467 47.5804 80.5937 47.2318C80.4408 46.905 80.2005 46.6435 79.8946 46.4256ZM79.9165 49.0402C79.8291 49.2799 79.6762 49.4542 79.4795 49.6067C79.2829 49.7592 79.0426 49.8246 78.7586 49.8246C78.4746 49.8246 78.2343 49.7592 78.0376 49.6067C77.841 49.4542 77.6881 49.2799 77.6007 49.0402C77.5133 48.8005 77.4478 48.5609 77.4478 48.2994C77.4478 48.038 77.4914 47.7983 77.6007 47.5586C77.6881 47.3189 77.841 47.1446 78.0376 46.9921C78.2343 46.8396 78.4746 46.7742 78.7586 46.7742C79.0426 46.7742 79.2829 46.8396 79.4795 46.9921C79.6762 47.1446 79.8291 47.3189 79.9165 47.5586C80.0039 47.7983 80.0694 48.038 80.0694 48.2994C80.0694 48.5609 80.0039 48.8005 79.9165 49.0402Z" fill="#333333"/>
<path d="M84.8975 46.8614H84.8538C84.7883 46.7524 84.7009 46.6653 84.5917 46.5346C84.4824 46.4256 84.3295 46.3167 84.1547 46.2295C83.98 46.1424 83.7615 46.0988 83.4775 46.0988C83.1498 46.0988 82.8876 46.1642 82.6473 46.2949C82.407 46.4256 82.2104 46.5781 82.0574 46.796C81.9045 47.0139 81.7734 47.2318 81.7079 47.4932C81.6205 47.7547 81.5986 48.0162 81.5986 48.2776C81.5986 48.5391 81.6423 48.8005 81.7079 49.062C81.7953 49.3235 81.9045 49.5631 82.0574 49.7592C82.2104 49.9771 82.407 50.1296 82.6473 50.2604C82.8876 50.3911 83.1716 50.4565 83.4775 50.4565C83.7396 50.4565 83.9581 50.4129 84.1547 50.3257C84.3295 50.2386 84.4824 50.1514 84.5917 50.0207C84.7009 49.9117 84.7883 49.8028 84.8538 49.6939H84.8975V50.3693H85.6622V44.5954H84.8975V46.8614ZM84.7446 49.0184C84.6572 49.2581 84.5043 49.4542 84.3295 49.6067C84.1329 49.7592 83.9144 49.8246 83.6304 49.8246C83.3464 49.8246 83.1061 49.7592 82.9313 49.6067C82.7347 49.4542 82.6036 49.2581 82.5162 49.0184C82.4288 48.7788 82.3851 48.5391 82.3851 48.2776C82.3851 48.0162 82.4288 47.7765 82.5162 47.5368C82.6036 47.2971 82.7565 47.1228 82.9313 46.9703C83.1279 46.8178 83.3464 46.7524 83.6304 46.7524C83.9144 46.7524 84.1547 46.8178 84.3295 46.9703C84.5261 47.1228 84.6572 47.3189 84.7446 47.5368C84.832 47.7765 84.8757 48.0162 84.8757 48.2776C84.8757 48.5391 84.832 48.8005 84.7446 49.0184Z" fill="#333333"/>
<path d="M89.3106 48.4955C89.3106 48.7134 89.2669 48.9313 89.2014 49.1274C89.1358 49.3235 89.0266 49.4978 88.8737 49.6285C88.7207 49.7592 88.5241 49.8246 88.262 49.8246C88.0216 49.8246 87.8032 49.7592 87.6721 49.6067C87.5192 49.4542 87.4536 49.2581 87.4536 48.9748V46.2077H86.689V49.0184C86.689 49.476 86.82 49.8464 87.0604 50.0861C87.3007 50.3475 87.6502 50.4782 88.0653 50.4782C88.3275 50.4782 88.546 50.4347 88.6989 50.3475C88.8737 50.2604 88.9829 50.1732 89.0703 50.0643C89.1577 49.9553 89.2232 49.8682 89.2451 49.8028H89.2888V50.4129H90.0534V46.2077H89.2888V48.4955H89.3106Z" fill="#333333"/>
<path d="M92.2819 46.9921C92.4785 46.8396 92.7188 46.7742 93.0247 46.7742C93.265 46.7742 93.4616 46.8178 93.6146 46.905C93.7675 46.9921 93.8767 47.1011 93.9423 47.21C94.0078 47.3189 94.0733 47.4715 94.1389 47.6458H94.8598C94.8161 47.4497 94.7724 47.2754 94.7069 47.1228C94.6414 46.9703 94.5321 46.8178 94.401 46.6653C94.27 46.5128 94.0952 46.382 93.8549 46.2949C93.6364 46.1859 93.3524 46.1424 93.0028 46.1424C92.6533 46.1424 92.3474 46.2077 92.0853 46.3385C91.8231 46.4692 91.6046 46.6217 91.4298 46.8396C91.2551 47.0575 91.124 47.2754 91.0366 47.5368C90.9492 47.7983 90.9055 48.0597 90.9055 48.3212C90.9055 48.5827 90.9492 48.8441 91.0366 49.1056C91.124 49.367 91.2551 49.6067 91.4298 49.8028C91.6046 50.0207 91.8231 50.1732 92.0853 50.3039C92.3474 50.4347 92.6533 50.5 92.981 50.5C93.3087 50.5 93.5927 50.4565 93.833 50.3475C94.0515 50.2386 94.2263 50.1296 94.3792 49.9771C94.5103 49.8246 94.6195 49.6721 94.6851 49.5196C94.7506 49.367 94.8161 49.1927 94.838 48.9966H94.117C94.0733 49.1709 94.0078 49.3235 93.9204 49.4324C93.8549 49.5413 93.7456 49.6503 93.5927 49.7374C93.4398 49.8246 93.2432 49.8682 93.0028 49.8682C92.7188 49.8682 92.4567 49.8028 92.26 49.6503C92.0634 49.4978 91.9105 49.3235 91.8231 49.0838C91.7357 48.8441 91.6702 48.6044 91.6702 48.343C91.6702 48.0815 91.7139 47.8201 91.8231 47.6022C91.9323 47.3189 92.0634 47.1228 92.2819 46.9921Z" fill="#333333"/>
<path d="M97.1321 49.6721C97.0228 49.5849 96.9573 49.4106 96.9573 49.2145V46.8178H97.9841V46.2077H96.9573V45.1619H96.1926V46.2077H95.428V46.8178H96.1926V49.2145C96.1926 49.6067 96.3019 49.9335 96.5203 50.1514C96.7388 50.3693 97.0665 50.4782 97.5035 50.4782C97.6782 50.4782 97.8749 50.4565 98.1152 50.4129V49.7592C97.8967 49.781 97.7438 49.8028 97.6127 49.8028C97.4161 49.8246 97.2413 49.7592 97.1321 49.6721Z" fill="#333333"/>
<path d="M101.938 46.4256C101.632 46.2077 101.261 46.1206 100.802 46.1206C100.343 46.1206 99.9721 46.2295 99.6662 46.4256C99.3604 46.6435 99.1201 46.905 98.9671 47.2318C98.8142 47.5586 98.7268 47.9072 98.7268 48.2994C98.7268 48.6698 98.8142 49.0184 98.9671 49.3453C99.1201 49.6721 99.3604 49.9553 99.6662 50.1514C99.9721 50.3693 100.343 50.4565 100.802 50.4565C101.261 50.4565 101.632 50.3475 101.938 50.1514C102.244 49.9335 102.485 49.6721 102.637 49.3453C102.79 49.0184 102.878 48.6698 102.878 48.2994C102.878 47.929 102.79 47.5804 102.637 47.2318C102.463 46.905 102.244 46.6435 101.938 46.4256ZM101.96 49.0402C101.873 49.2799 101.72 49.4542 101.523 49.6067C101.327 49.7592 101.086 49.8246 100.802 49.8246C100.518 49.8246 100.278 49.7592 100.081 49.6067C99.8847 49.4542 99.7318 49.2799 99.6444 49.0402C99.557 48.8005 99.4915 48.5609 99.4915 48.2994C99.4915 48.038 99.5352 47.7983 99.6444 47.5586C99.7318 47.3189 99.8847 47.1446 100.081 46.9921C100.278 46.8396 100.518 46.7742 100.802 46.7742C101.086 46.7742 101.327 46.8396 101.523 46.9921C101.72 47.1446 101.873 47.3189 101.96 47.5586C102.048 47.7983 102.113 48.038 102.113 48.2994C102.091 48.5609 102.048 48.8005 101.96 49.0402Z" fill="#333333"/>
<path d="M105.565 47.929L104.975 47.7983C104.8 47.7547 104.669 47.6893 104.56 47.6022C104.451 47.515 104.407 47.4061 104.407 47.2754C104.407 47.1446 104.473 47.0139 104.582 46.905C104.691 46.796 104.888 46.7306 105.128 46.7306C105.303 46.7306 105.456 46.7524 105.565 46.8178C105.674 46.8832 105.761 46.9485 105.805 47.0139C105.871 47.101 105.914 47.1882 105.936 47.3189H106.657C106.635 47.1446 106.592 47.0139 106.526 46.8832C106.461 46.7524 106.395 46.6435 106.264 46.5128C106.155 46.382 106.002 46.2949 105.805 46.2077C105.609 46.1206 105.368 46.077 105.084 46.077C104.647 46.077 104.298 46.1859 104.036 46.4256C103.773 46.6653 103.62 46.9485 103.62 47.3189C103.62 47.5586 103.686 47.7547 103.795 47.9072C103.904 48.0597 104.057 48.1905 104.254 48.2776C104.429 48.3648 104.647 48.4301 104.844 48.4955L105.412 48.6262C105.609 48.6698 105.761 48.7352 105.871 48.8223C105.98 48.9095 106.024 49.0402 106.024 49.1927C106.024 49.367 105.958 49.5196 105.827 49.6285C105.696 49.7374 105.499 49.8028 105.237 49.8028C105.019 49.8028 104.844 49.7592 104.713 49.6939C104.582 49.6285 104.494 49.5413 104.429 49.4542C104.363 49.367 104.32 49.2363 104.276 49.1056H103.511C103.533 49.2799 103.599 49.4324 103.642 49.5849C103.708 49.7157 103.795 49.8464 103.904 49.9989C104.036 50.1296 104.188 50.2386 104.407 50.3257C104.625 50.4129 104.888 50.4565 105.215 50.4565C105.543 50.4565 105.827 50.3911 106.045 50.2821C106.264 50.1732 106.439 49.9989 106.57 49.8028C106.701 49.6067 106.745 49.3888 106.745 49.1492C106.745 48.8005 106.635 48.5173 106.395 48.3212C106.242 48.1687 105.936 48.0162 105.565 47.929Z" fill="#333333"/>
<path d="M111.529 49.5631L109.781 44.5082H108.973L111.027 50.4782H112.01L114.085 44.5082H113.277L111.529 49.5631Z" fill="#333333"/>
<path d="M117.209 46.3602C116.925 46.1859 116.619 46.1206 116.248 46.1206C115.899 46.1206 115.615 46.1859 115.374 46.3167C115.134 46.4474 114.915 46.5999 114.762 46.8178C114.61 47.0357 114.478 47.2536 114.413 47.515C114.326 47.7765 114.304 48.038 114.304 48.2994C114.304 48.5609 114.347 48.8223 114.413 49.0838C114.5 49.3453 114.61 49.5631 114.784 49.781C114.937 49.9989 115.156 50.1514 115.396 50.2821C115.636 50.4129 115.942 50.4782 116.292 50.4782C116.598 50.4782 116.86 50.4347 117.056 50.3475C117.253 50.2604 117.428 50.1514 117.559 49.9989C117.69 49.8682 117.799 49.7374 117.865 49.6067C117.93 49.476 117.996 49.3235 118.04 49.1274H117.34C117.275 49.2799 117.209 49.3888 117.144 49.476C117.056 49.5631 116.947 49.6503 116.816 49.7157C116.685 49.781 116.51 49.8246 116.292 49.8246C116.051 49.8246 115.833 49.7592 115.658 49.6503C115.483 49.5413 115.331 49.367 115.243 49.1709C115.156 48.9749 115.09 48.757 115.068 48.5173H118.105V48.2994C118.105 47.8201 118.018 47.4061 117.865 47.0793C117.69 46.7742 117.472 46.5346 117.209 46.3602ZM115.068 47.929C115.112 47.5804 115.221 47.2754 115.44 47.0793C115.658 46.8614 115.92 46.7524 116.248 46.7524C116.423 46.7524 116.598 46.796 116.772 46.8832C116.947 46.9703 117.078 47.1011 117.188 47.2754C117.297 47.4497 117.362 47.6675 117.362 47.9508H115.068V47.929Z" fill="#333333"/>
<path d="M120.29 49.6721C120.181 49.5849 120.115 49.4106 120.115 49.2145V46.8178H121.142V46.2077H120.115V45.1619H119.35V46.2077H118.586V46.8178H119.35V49.2145C119.35 49.6067 119.46 49.9335 119.678 50.1514C119.897 50.3693 120.224 50.4782 120.661 50.4782C120.836 50.4782 121.033 50.4565 121.273 50.4129V49.7592C121.054 49.781 120.901 49.8028 120.77 49.8028C120.574 49.8246 120.399 49.7592 120.29 49.6721Z" fill="#333333"/>
<path d="M124.812 46.3602C124.528 46.1859 124.222 46.1206 123.851 46.1206C123.501 46.1206 123.217 46.1859 122.977 46.3167C122.737 46.4474 122.518 46.5999 122.365 46.8178C122.212 47.0357 122.081 47.2536 122.016 47.515C121.928 47.7765 121.906 48.038 121.906 48.2994C121.906 48.5609 121.95 48.8223 122.016 49.0838C122.103 49.3453 122.212 49.5631 122.387 49.781C122.54 49.9989 122.759 50.1514 122.999 50.2821C123.239 50.4129 123.545 50.4782 123.895 50.4782C124.2 50.4782 124.463 50.4347 124.659 50.3475C124.856 50.2604 125.031 50.1514 125.162 49.9989C125.293 49.8682 125.402 49.7374 125.468 49.6067C125.533 49.476 125.599 49.3235 125.642 49.1274H124.943C124.878 49.2799 124.812 49.3888 124.747 49.476C124.659 49.5631 124.55 49.6503 124.419 49.7157C124.288 49.781 124.113 49.8246 123.895 49.8246C123.654 49.8246 123.436 49.7592 123.261 49.6503C123.086 49.5413 122.933 49.367 122.846 49.1709C122.759 48.9749 122.693 48.757 122.671 48.5173H125.708V48.2994C125.708 47.8201 125.62 47.4061 125.468 47.0793C125.293 46.7742 125.074 46.5346 124.812 46.3602ZM122.649 47.929C122.693 47.5804 122.802 47.2754 123.021 47.0793C123.239 46.8614 123.501 46.7524 123.829 46.7524C124.004 46.7524 124.179 46.796 124.353 46.8832C124.528 46.9703 124.659 47.1011 124.768 47.2754C124.878 47.4497 124.943 47.6675 124.943 47.9508H122.649V47.929Z" fill="#333333"/>
<path d="M127.74 46.382C127.565 46.5128 127.434 46.6435 127.347 46.796H127.325V46.2731H126.56V50.4782H127.325V48.2558C127.325 47.7765 127.434 47.4497 127.631 47.2318C127.827 47.0139 128.111 46.9267 128.483 46.9267C128.57 46.9267 128.701 46.9267 128.854 46.9485V46.2295C128.701 46.2077 128.592 46.2077 128.504 46.2077C128.177 46.2077 127.915 46.2513 127.74 46.382Z" fill="#333333"/>
<path d="M130.165 44.5082C130.012 44.5082 129.903 44.5518 129.815 44.6608C129.728 44.7479 129.684 44.8786 129.684 45.0094C129.684 45.1401 129.728 45.249 129.815 45.358C129.903 45.4451 130.034 45.5105 130.165 45.5105C130.296 45.5105 130.427 45.4669 130.514 45.358C130.602 45.2708 130.667 45.1401 130.667 45.0094C130.667 44.8786 130.624 44.7479 130.514 44.6608C130.427 44.5518 130.296 44.5082 130.165 44.5082Z" fill="#333333"/>
<path d="M130.558 46.2731H129.793V50.4782H130.558V46.2731Z" fill="#333333"/>
<path d="M134.381 46.4038C134.163 46.2731 133.901 46.1859 133.595 46.1859C133.354 46.1859 133.136 46.2295 132.983 46.3167C132.808 46.4038 132.699 46.5128 132.612 46.6217C132.524 46.7307 132.459 46.8178 132.415 46.8832H132.371V46.2731H131.607V50.4782H132.371V48.1033C132.371 47.8854 132.415 47.6893 132.481 47.4932C132.546 47.2971 132.655 47.1446 132.808 47.0357C132.961 46.9267 133.158 46.8614 133.398 46.8614C133.704 46.8614 133.922 46.9485 134.075 47.1446C134.228 47.3189 134.316 47.5586 134.316 47.8419V50.5H135.08V47.7983C135.08 47.4932 135.015 47.2318 134.906 46.9921C134.775 46.7307 134.6 46.5563 134.381 46.4038Z" fill="#333333"/>
<path d="M139.231 46.8614H139.188C139.122 46.7524 139.035 46.6653 138.925 46.5346C138.816 46.4256 138.663 46.3167 138.488 46.2295C138.314 46.1424 138.095 46.0988 137.811 46.0988C137.484 46.0988 137.221 46.1642 136.981 46.2949C136.741 46.4256 136.544 46.5781 136.391 46.796C136.238 47.0139 136.107 47.2318 136.042 47.4932C135.954 47.7547 135.932 48.0162 135.932 48.2776C135.932 48.5391 135.976 48.8005 136.042 49.062C136.129 49.3235 136.238 49.5631 136.391 49.7592C136.544 49.9771 136.741 50.1296 136.981 50.2604C137.221 50.3911 137.505 50.4565 137.811 50.4565C138.073 50.4565 138.292 50.4129 138.488 50.3257C138.663 50.2386 138.816 50.1514 138.925 50.0207C139.035 49.9117 139.122 49.8028 139.188 49.6939H139.231V50.3693H139.996V46.1642H139.231V46.8614ZM139.078 49.0184C138.991 49.2581 138.838 49.4542 138.663 49.6067C138.467 49.7592 138.248 49.8246 137.964 49.8246C137.68 49.8246 137.44 49.7592 137.265 49.6067C137.068 49.4542 136.937 49.2581 136.85 49.0184C136.763 48.7788 136.719 48.5391 136.719 48.2776C136.719 48.0162 136.763 47.7765 136.85 47.5368C136.937 47.2971 137.09 47.1228 137.265 46.9703C137.462 46.8178 137.68 46.7524 137.964 46.7524C138.248 46.7524 138.488 46.8178 138.663 46.9703C138.86 47.1228 138.991 47.3189 139.078 47.5368C139.166 47.7765 139.209 48.0162 139.209 48.2776C139.209 48.5391 139.166 48.8005 139.078 49.0184Z" fill="#333333"/>
<path d="M142.115 46.382C141.94 46.5128 141.809 46.6435 141.722 46.796H141.7V46.2731H140.935V50.4782H141.7V48.2558C141.7 47.7765 141.809 47.4497 142.006 47.2318C142.202 47.0139 142.486 46.9267 142.858 46.9267C142.945 46.9267 143.076 46.9267 143.229 46.9485V46.2295C143.076 46.2077 142.967 46.2077 142.88 46.2077C142.552 46.2077 142.29 46.2513 142.115 46.382Z" fill="#333333"/>
<path d="M144.54 44.5082C144.387 44.5082 144.278 44.5518 144.191 44.6608C144.103 44.7479 144.06 44.8786 144.06 45.0094C144.06 45.1401 144.103 45.249 144.191 45.358C144.278 45.4451 144.409 45.5105 144.54 45.5105C144.671 45.5105 144.802 45.4669 144.89 45.358C144.977 45.2708 145.043 45.1401 145.043 45.0094C145.043 44.8786 144.999 44.7479 144.89 44.6608C144.802 44.5518 144.693 44.5082 144.54 44.5082Z" fill="#333333"/>
<path d="M144.933 46.2731H144.169V50.4782H144.933V46.2731Z" fill="#333333"/>
<path d="M149.128 46.4256C148.822 46.2077 148.451 46.1206 147.992 46.1206C147.533 46.1206 147.162 46.2295 146.856 46.4256C146.55 46.6435 146.31 46.905 146.157 47.2318C146.004 47.5586 145.917 47.9072 145.917 48.2994C145.917 48.6698 146.004 49.0184 146.157 49.3453C146.31 49.6721 146.55 49.9553 146.856 50.1514C147.162 50.3693 147.533 50.4565 147.992 50.4565C148.451 50.4565 148.822 50.3475 149.128 50.1514C149.434 49.9335 149.674 49.6721 149.827 49.3453C149.98 49.0184 150.067 48.6698 150.067 48.2994C150.067 47.929 149.98 47.5804 149.827 47.2318C149.652 46.905 149.434 46.6435 149.128 46.4256ZM149.128 49.0402C149.041 49.2799 148.888 49.4542 148.691 49.6067C148.494 49.7592 148.254 49.8246 147.97 49.8246C147.686 49.8246 147.446 49.7592 147.249 49.6067C147.053 49.4542 146.9 49.2799 146.812 49.0402C146.725 48.8005 146.659 48.5609 146.659 48.2994C146.659 48.038 146.703 47.7983 146.812 47.5586C146.9 47.3189 147.053 47.1446 147.249 46.9921C147.446 46.8396 147.686 46.7742 147.97 46.7742C148.254 46.7742 148.494 46.8396 148.691 46.9921C148.888 47.1446 149.041 47.3189 149.128 47.5586C149.215 47.7983 149.281 48.038 149.281 48.2994C149.281 48.5609 149.237 48.8005 149.128 49.0402Z" fill="#333333"/>
<path d="M153.65 48.3648C153.41 48.1687 153.126 48.0379 152.755 47.9508L152.165 47.8201C151.99 47.7765 151.859 47.7111 151.75 47.624C151.64 47.5368 151.597 47.4279 151.597 47.2971C151.597 47.1664 151.662 47.0357 151.771 46.9267C151.881 46.8178 152.077 46.7524 152.318 46.7524C152.492 46.7524 152.645 46.7742 152.755 46.8396C152.864 46.905 152.951 46.9703 152.995 47.0357C153.06 47.1228 153.104 47.21 153.126 47.3407H153.847C153.825 47.1664 153.781 47.0357 153.716 46.905C153.65 46.7742 153.585 46.6653 153.454 46.5346C153.344 46.4038 153.191 46.3167 152.995 46.2295C152.798 46.1424 152.558 46.0988 152.274 46.0988C151.837 46.0988 151.487 46.2077 151.225 46.4474C150.963 46.6871 150.81 46.9703 150.81 47.3407C150.81 47.5804 150.876 47.7765 150.985 47.929C151.094 48.0815 151.247 48.2123 151.444 48.2994C151.619 48.3866 151.837 48.4519 152.034 48.5173L152.602 48.648C152.798 48.6916 152.951 48.757 153.06 48.8441C153.17 48.9313 153.213 49.062 153.213 49.2145C153.213 49.3888 153.148 49.5413 153.017 49.6503C152.886 49.7592 152.689 49.8246 152.427 49.8246C152.208 49.8246 152.034 49.781 151.903 49.7157C151.771 49.6503 151.684 49.5631 151.619 49.476C151.553 49.3888 151.509 49.2581 151.466 49.1274H150.701C150.723 49.3017 150.788 49.4542 150.832 49.6067C150.898 49.7374 150.985 49.8682 151.094 50.0207C151.225 50.1514 151.378 50.2604 151.597 50.3475C151.815 50.4347 152.077 50.4782 152.405 50.4782C152.733 50.4782 153.017 50.4129 153.235 50.3039C153.454 50.195 153.628 50.0207 153.76 49.8246C153.891 49.6285 153.934 49.4106 153.934 49.1709C154 48.8223 153.891 48.5391 153.65 48.3648Z" fill="#333333"/>
<path d="M20.6672 16.0962C23.5073 16.0962 25.5609 16.7063 26.8718 17.9483C28.1826 19.1902 28.8162 20.8679 28.8162 23.0249C28.8162 24.3105 28.554 25.5088 28.0078 26.6418C27.4835 27.7748 26.5878 28.6681 25.3425 29.3653C24.0972 30.0408 22.415 30.3894 20.274 30.3894H18.2859V38.2986H13.6543V16.0962H20.6672ZM20.405 19.9528H18.2859V26.5547H19.8152C21.126 26.5547 22.1747 26.2932 22.9393 25.7703C23.7039 25.2474 24.0972 24.3758 24.0972 23.1992C24.0972 21.0422 22.8738 19.9528 20.405 19.9528Z" fill="#4CA95A"/>
<path d="M72.576 21.2601L68.6216 32.7861L64.6673 21.2601H59.8828L66.2622 38.2986H70.9811L77.3605 21.2601H72.576Z" fill="#4CA95A"/>
<path d="M85.6186 21.2601C87.9344 21.2601 89.7695 21.9137 91.1241 23.1992C92.4786 24.4848 93.1558 26.3368 93.1558 28.7335V30.9123H82.3415C82.3852 32.176 82.7566 33.1783 83.4994 33.8973C84.2204 34.6163 85.2472 34.9867 86.5362 34.9867C87.6285 34.9867 88.6116 34.8778 89.4855 34.6599C90.3594 34.442 91.277 34.1152 92.2164 33.6794V37.1438C91.3862 37.536 90.5342 37.841 89.6166 38.0371C88.699 38.2332 87.6067 38.3203 86.3177 38.3203C84.6355 38.3203 83.1499 38.0153 81.8609 37.4052C80.5719 36.7952 79.5451 35.8583 78.8242 34.6163C78.0814 33.3744 77.71 31.8056 77.71 29.91C77.71 27.9927 78.0377 26.3803 78.7149 25.0948C79.3703 23.8093 80.3098 22.8506 81.4895 22.2188C82.6474 21.5869 84.0238 21.2601 85.6186 21.2601ZM85.6404 24.4412C84.7666 24.4412 84.0238 24.7244 83.4339 25.2909C82.844 25.8574 82.5163 26.729 82.4071 27.9055H88.8301C88.8083 26.9033 88.5461 26.0753 88.0218 25.4217C87.5193 24.768 86.7328 24.4412 85.6404 24.4412Z" fill="#4CA95A"/>
<path d="M103.293 34.6599C103.795 34.6599 104.298 34.6163 104.779 34.5074C105.259 34.3984 105.718 34.2895 106.199 34.137V37.536C105.696 37.7321 105.106 37.9282 104.363 38.0807C103.642 38.2332 102.834 38.3204 101.982 38.3204C100.977 38.3204 100.081 38.146 99.2949 37.8192C98.5084 37.4924 97.8748 36.9259 97.416 36.1197C96.9572 35.3136 96.7169 34.2024 96.7169 32.7643V24.7026H94.5322V21.2601H96.7169V17.7086H101.305V21.2819H106.177V24.7026H101.283V32.7643C101.283 33.3962 101.458 33.8755 101.829 34.1806C102.201 34.5074 102.681 34.6599 103.293 34.6599Z" fill="#4CA95A"/>
<path d="M41.0944 21.2819C40.7886 21.2601 40.5264 21.2601 40.2861 21.2601C39.15 21.2601 38.1669 21.5651 37.293 22.1752C36.441 22.7853 35.5671 23.5261 35.0646 24.3758V21.2601H30.8918V38.3203H35.4797V29.8011C35.4797 28.7335 35.6982 27.9055 36.1351 27.2954C36.5721 26.6854 37.162 26.2278 37.8829 25.9664C38.6039 25.6831 39.3467 25.5524 40.1332 25.5524C40.3298 25.5524 40.5701 25.5742 40.8541 25.596C41.1381 25.6177 41.3784 25.7049 41.8154 25.8792V21.3908C41.6625 21.3472 41.4003 21.3037 41.0944 21.2819Z" fill="#4CA95A"/>
<path d="M51.843 21.2601C47.124 21.2601 43.3008 25.073 43.3008 29.7793C43.3008 34.4856 47.124 38.2986 51.843 38.2986C56.562 38.2986 60.3852 34.4856 60.3852 29.7793C60.3852 25.073 56.562 21.2601 51.843 21.2601ZM51.843 34.4202C49.265 34.4202 47.1896 32.3503 47.1896 29.7793C47.1896 27.2083 49.265 25.1384 51.843 25.1384C54.4209 25.1384 56.4964 27.2083 56.4964 29.7793C56.4964 32.3503 54.4209 34.4202 51.843 34.4202Z" fill="#4CA95A"/>
<rect x="64.5806" y="43.2402" width="89.4194" height="8.94194" fill="white"/>
</g>
<defs>
<clipPath id="clip0_375_28">
<rect width="154" height="54.6452" fill="white" transform="translate(0 0.517578)"/>
</clipPath>
</defs>
</svg>
