<svg width="38" height="38" viewBox="0 0 38 38" fill="none" xmlns="http://www.w3.org/2000/svg">
<rect width="38" height="38" rx="10" fill="url(#paint0_linear_1461_335)"/>
<path d="M16.4091 6.90912C15.0353 6.91072 13.7182 7.45717 12.7468 8.42861C11.7753 9.40004 11.2289 10.7171 11.2273 12.0909H12.9545C12.9545 11.1747 13.3185 10.2961 13.9663 9.6482C14.6142 9.00035 15.4929 8.63639 16.4091 8.63639C17.3253 8.63639 18.204 9.00035 18.8518 9.6482C19.4997 10.2961 19.8636 11.1747 19.8636 12.0909H21.5909C21.5893 10.7171 21.0428 9.40004 20.0714 8.42861C19.1 7.45717 17.7829 6.91072 16.4091 6.90912Z" fill="white"/>
<path d="M23.3182 31.0909H19.4837C18.6172 31.0907 17.7824 30.7649 17.1449 30.1781L9.19948 22.8665C9.01396 22.6969 8.86766 22.4889 8.77075 22.257C8.67385 22.0251 8.62867 21.7748 8.63837 21.5237C8.64807 21.2725 8.71242 21.0265 8.82693 20.8027C8.94143 20.579 9.10334 20.3829 9.30138 20.2281C9.64067 19.9795 10.0566 19.8583 10.4763 19.8856C10.896 19.9129 11.2927 20.0871 11.5969 20.3775L14.6818 23.1947V12.0909C14.6818 11.6328 14.8638 11.1935 15.1877 10.8696C15.5117 10.5456 15.951 10.3636 16.4091 10.3636C16.8672 10.3636 17.3066 10.5456 17.6305 10.8696C17.9544 11.1935 18.1364 11.6328 18.1364 12.0909V18.1364C18.1364 17.6783 18.3184 17.2389 18.6423 16.915C18.9662 16.5911 19.4056 16.4091 19.8637 16.4091C20.3218 16.4091 20.7611 16.5911 21.085 16.915C21.4089 17.2389 21.5909 17.6783 21.5909 18.1364V19C21.5909 18.5419 21.7729 18.1026 22.0968 17.7786C22.4208 17.4547 22.8601 17.2727 23.3182 17.2727C23.7763 17.2727 24.2156 17.4547 24.5396 17.7786C24.8635 18.1026 25.0455 18.5419 25.0455 19V19.8636C25.0455 19.4055 25.2275 18.9662 25.5514 18.6423C25.8753 18.3184 26.3146 18.1364 26.7727 18.1364C27.2309 18.1364 27.6702 18.3184 27.9941 18.6423C28.318 18.9662 28.5 19.4055 28.5 19.8636V25.9091C28.5 27.2834 27.9541 28.6014 26.9823 29.5732C26.0105 30.545 24.6925 31.0909 23.3182 31.0909Z" fill="white"/>
<defs>
<linearGradient id="paint0_linear_1461_335" x1="38" y1="19" x2="-15.5455" y2="19" gradientUnits="userSpaceOnUse">
<stop stop-color="#FF1A60"/>
<stop offset="1" stop-color="#B257E4"/>
</linearGradient>
</defs>
</svg>
