<svg width="39" height="39" viewBox="0 0 39 39" fill="none" xmlns="http://www.w3.org/2000/svg">
<path d="M33.6044 2.40031C34.241 2.40031 34.8515 2.6532 35.3016 3.10335C35.7518 3.55349 36.0047 4.16402 36.0047 4.80062V33.6044C36.0047 34.241 35.7518 34.8515 35.3016 35.3016C34.8515 35.7518 34.241 36.0047 33.6044 36.0047H4.80062C4.16402 36.0047 3.55349 35.7518 3.10335 35.3016C2.6532 34.8515 2.40031 34.241 2.40031 33.6044V4.80062C2.40031 4.16402 2.6532 3.55349 3.10335 3.10335C3.55349 2.6532 4.16402 2.40031 4.80062 2.40031H33.6044ZM4.80062 0C3.52742 0 2.30636 0.505779 1.40607 1.40607C0.505779 2.30636 0 3.52742 0 4.80062L0 33.6044C0 34.8776 0.505779 36.0986 1.40607 36.9989C2.30636 37.8992 3.52742 38.405 4.80062 38.405H33.6044C34.8776 38.405 36.0986 37.8992 36.9989 36.9989C37.8992 36.0986 38.405 34.8776 38.405 33.6044V4.80062C38.405 3.52742 37.8992 2.30636 36.9989 1.40607C36.0986 0.505779 34.8776 0 33.6044 0L4.80062 0Z" fill="#FFF"/>
<path d="M20.001 9C25.524 9 30.001 13.477 30.001 19C30.001 24.523 25.524 29 20.001 29C18.2338 29.0029 16.4976 28.5352 14.971 27.645L10.005 29L11.357 24.032C10.4661 22.5049 9.99804 20.768 10.001 19C10.001 13.477 14.478 9 20.001 9ZM16.593 14.3L16.393 14.308C16.2635 14.3159 16.137 14.3499 16.021 14.408C15.9125 14.4694 15.8135 14.5462 15.727 14.636C15.607 14.749 15.539 14.847 15.466 14.942C15.0961 15.4229 14.897 16.0133 14.9 16.62C14.902 17.11 15.03 17.587 15.23 18.033C15.639 18.935 16.312 19.89 17.2 20.775C17.414 20.988 17.624 21.202 17.85 21.401C18.9534 22.3725 20.2682 23.073 21.69 23.447L22.258 23.534C22.443 23.544 22.628 23.53 22.814 23.521C23.1052 23.506 23.3896 23.4271 23.647 23.29C23.7779 23.2225 23.9057 23.1491 24.03 23.07C24.03 23.07 24.073 23.042 24.155 22.98C24.29 22.88 24.373 22.809 24.485 22.692C24.568 22.606 24.64 22.505 24.695 22.39C24.773 22.227 24.851 21.916 24.883 21.657C24.907 21.459 24.9 21.351 24.897 21.284C24.893 21.177 24.804 21.066 24.707 21.019L24.125 20.758C24.125 20.758 23.255 20.379 22.723 20.137C22.6673 20.1127 22.6077 20.0988 22.547 20.096C22.4786 20.089 22.4094 20.0967 22.3442 20.1186C22.279 20.1405 22.2193 20.1761 22.169 20.223C22.164 20.221 22.097 20.278 21.374 21.154C21.3325 21.2098 21.2753 21.2519 21.2098 21.2751C21.1443 21.2982 21.0733 21.3013 21.006 21.284C20.9408 21.2665 20.877 21.2445 20.815 21.218C20.691 21.166 20.648 21.146 20.563 21.11C19.9891 20.8595 19.4577 20.5211 18.988 20.107C18.862 19.997 18.745 19.877 18.625 19.761C18.2316 19.3842 17.8887 18.958 17.605 18.493L17.546 18.398C17.5036 18.3342 17.4694 18.2653 17.444 18.193C17.406 18.046 17.505 17.928 17.505 17.928C17.505 17.928 17.748 17.662 17.861 17.518C17.971 17.378 18.064 17.242 18.124 17.145C18.242 16.955 18.279 16.76 18.217 16.609C17.937 15.925 17.647 15.244 17.349 14.568C17.29 14.434 17.115 14.338 16.956 14.319C16.902 14.313 16.848 14.307 16.794 14.303C16.6597 14.2963 16.5251 14.2977 16.391 14.307L16.592 14.299L16.593 14.3Z" fill="#FFF"/>
</svg>
