<svg width="195" height="60" viewBox="0 0 195 60" fill="none" xmlns="http://www.w3.org/2000/svg">
<g clip-path="url(#clip0_326_78)">
<path d="M58.7205 45.6164H59.697V50.9589H58.7205V45.6164Z" fill="#0070B3"/>
<path d="M65.0209 47.2603C65.336 47.5764 65.4935 48.019 65.4935 48.588V50.9273H64.5484V48.7144C64.5484 48.3667 64.4539 48.0822 64.2964 47.9241C64.1389 47.7345 63.8869 47.6396 63.5718 47.6396C63.2253 47.6396 62.9418 47.7345 62.7528 47.9557C62.5638 48.177 62.4377 48.4615 62.4377 48.8725V50.9273H61.4927V46.8493H62.4062V47.3867C62.5638 47.197 62.7528 47.0706 63.0048 46.9441C63.2568 46.8493 63.5088 46.7861 63.8239 46.7861C64.2964 46.8177 64.7059 46.9758 65.0209 47.2603Z" fill="#0070B3"/>
<path d="M67.4152 50.8641C67.1002 50.7692 66.8482 50.6744 66.6592 50.5479L67.0372 49.8209C67.2262 49.9473 67.4467 50.0421 67.6988 50.1054C67.9508 50.1686 68.2028 50.2318 68.4548 50.2318C69.0219 50.2318 69.3054 50.0738 69.3054 49.7892C69.3054 49.6312 69.2424 49.5364 69.0849 49.5047C68.9274 49.4415 68.7068 49.4099 68.3918 49.3467C68.0453 49.2835 67.7933 49.2518 67.5727 49.157C67.3522 49.0938 67.1947 48.9673 67.0372 48.8093C66.8797 48.6512 66.8167 48.3983 66.8167 48.1138C66.8167 47.7345 66.9742 47.4183 67.2892 47.197C67.6043 46.9758 68.0453 46.8493 68.5808 46.8493C68.8643 46.8493 69.1479 46.8809 69.4314 46.9441C69.7149 47.0074 69.9354 47.1022 70.1244 47.197L69.7464 47.9241C69.3999 47.7345 69.0219 47.608 68.5808 47.608C68.2973 47.608 68.0768 47.6396 67.9508 47.7345C67.7933 47.8293 67.7303 47.9241 67.7303 48.0822C67.7303 48.2403 67.7933 48.3351 67.9508 48.3983C68.1083 48.4615 68.3603 48.5248 68.6753 48.588C68.9904 48.6512 69.2739 48.6828 69.4629 48.7777C69.6834 48.8409 69.8409 48.9673 69.9984 49.1254C70.1559 49.2835 70.2189 49.5047 70.2189 49.7892C70.2189 50.1686 70.0614 50.4847 69.7149 50.706C69.3999 50.9273 68.9274 51.0537 68.3603 51.0537C68.0453 50.9905 67.7303 50.9589 67.4152 50.8641Z" fill="#0070B3"/>
<path d="M75.3853 46.8809V50.9589H74.4718V50.4531C74.3142 50.6428 74.1252 50.7692 73.9047 50.8641C73.6842 50.9589 73.4322 51.0221 73.1802 51.0221C72.6446 51.0221 72.2036 50.8641 71.8886 50.5796C71.5735 50.2634 71.416 49.8209 71.416 49.2202V46.8809H72.3611V49.0938C72.3611 49.4731 72.4556 49.726 72.6131 49.9157C72.7706 50.1054 73.0226 50.2002 73.3062 50.2002C73.6527 50.2002 73.9047 50.1054 74.1252 49.8841C74.3142 49.6628 74.4403 49.3783 74.4403 48.9673V46.9125H75.3853V46.8809Z" fill="#0070B3"/>
<path d="M83.4184 47.2603C83.7334 47.5448 83.8595 48.019 83.8595 48.588V50.9273H82.9144V48.7144C82.9144 48.3667 82.8514 48.0822 82.6939 47.9241C82.5363 47.7345 82.3158 47.6396 82.0008 47.6396C81.6858 47.6396 81.4338 47.7345 81.2447 47.9557C81.0557 48.177 80.9612 48.4615 80.9612 48.8725V50.9273H80.0162V48.7144C80.0162 48.3667 79.9531 48.0822 79.7956 47.9241C79.6381 47.7345 79.4176 47.6396 79.1026 47.6396C78.7876 47.6396 78.5355 47.7345 78.315 47.9557C78.0945 48.177 78.0315 48.4615 78.0315 48.8725V50.9273H77.0864V46.8493H78V47.3551C78.1575 47.1654 78.3465 47.039 78.567 46.9442C78.7876 46.8493 79.0396 46.7861 79.3231 46.7861C79.6381 46.7861 79.8901 46.8493 80.1422 46.9442C80.3942 47.039 80.5517 47.2287 80.7092 47.45C80.8667 47.2287 81.0872 47.0706 81.3708 46.9442C81.6228 46.8177 81.9378 46.7545 82.2528 46.7545C82.6939 46.8177 83.1034 46.9758 83.4184 47.2603Z" fill="#0070B3"/>
<path d="M86.2535 50.7376C85.9384 50.5479 85.6549 50.3267 85.4659 49.9789C85.2769 49.6628 85.1824 49.3151 85.1824 48.9041C85.1824 48.4931 85.2769 48.1454 85.4659 47.8293C85.6549 47.5132 85.9069 47.2603 86.2535 47.1022C86.5685 46.9125 86.9465 46.8493 87.356 46.8493C87.7656 46.8493 88.1436 46.9441 88.4901 47.1022C88.8052 47.2919 89.0887 47.5132 89.2777 47.8293C89.4667 48.1454 89.5612 48.4931 89.5612 48.9041C89.5612 49.3151 89.4667 49.6628 89.2777 49.9789C89.0887 50.295 88.8367 50.5479 88.4901 50.7376C88.1436 50.9273 87.7971 50.9905 87.356 50.9905C86.9465 50.9905 86.5685 50.8957 86.2535 50.7376ZM88.2066 49.8209C88.4271 49.5996 88.5531 49.2835 88.5531 48.9041C88.5531 48.5248 88.4271 48.2086 88.2066 47.9874C87.9861 47.7661 87.7026 47.6396 87.3245 47.6396C86.9465 47.6396 86.6945 47.7661 86.474 47.9874C86.2535 48.2086 86.1274 48.5248 86.1274 48.9041C86.1274 49.2835 86.2535 49.5996 86.474 49.8209C86.6945 50.0421 86.978 50.1686 87.3245 50.1686C87.6711 50.1686 87.9861 50.0738 88.2066 49.8209Z" fill="#0070B3"/>
<path d="M91.1364 50.8641C90.8214 50.7692 90.5694 50.6744 90.3804 50.5479L90.7584 49.8209C90.9474 49.9473 91.1679 50.0421 91.42 50.1054C91.672 50.1686 91.924 50.2318 92.176 50.2318C92.7431 50.2318 93.0266 50.0738 93.0266 49.7892C93.0266 49.6312 92.9636 49.5364 92.8061 49.5047C92.6485 49.4415 92.428 49.4099 92.113 49.3467C91.7665 49.2835 91.5145 49.2518 91.2939 49.157C91.0734 49.0938 90.9159 48.9673 90.7584 48.8093C90.6009 48.6512 90.5379 48.3983 90.5379 48.1138C90.5379 47.7345 90.6954 47.4183 91.0104 47.197C91.3254 46.9758 91.7665 46.8493 92.302 46.8493C92.5855 46.8493 92.8691 46.8809 93.1526 46.9441C93.4361 47.0074 93.6566 47.1022 93.8456 47.197L93.4676 47.9241C93.1211 47.7345 92.7431 47.608 92.302 47.608C92.0185 47.608 91.798 47.6396 91.672 47.7345C91.5145 47.8293 91.4515 47.9241 91.4515 48.0822C91.4515 48.2403 91.5145 48.3351 91.672 48.3983C91.8295 48.4615 92.0815 48.5248 92.3965 48.588C92.7115 48.6512 92.9951 48.6828 93.1841 48.7777C93.4046 48.8409 93.5621 48.9673 93.7196 49.1254C93.8771 49.2835 93.9402 49.5047 93.9402 49.7892C93.9402 50.1686 93.7826 50.4847 93.4361 50.706C93.1211 50.9273 92.6485 51.0537 92.0815 51.0537C91.7665 50.9905 91.4515 50.9589 91.1364 50.8641Z" fill="#0070B3"/>
<path d="M100.65 47.2603C100.965 47.5448 101.123 47.9874 101.123 48.5564V50.9589H100.209V50.4531C100.083 50.6428 99.9257 50.7692 99.7052 50.8641C99.4847 50.9589 99.2327 50.9905 98.9176 50.9905C98.6026 50.9905 98.3506 50.9273 98.1301 50.8325C97.9096 50.7376 97.7205 50.5796 97.5945 50.3899C97.4685 50.2002 97.4055 49.9789 97.4055 49.7576C97.4055 49.3783 97.5315 49.0938 97.815 48.8725C98.0986 48.6512 98.5081 48.5248 99.1066 48.5248H100.146V48.4615C100.146 48.177 100.052 47.9557 99.8942 47.7977C99.7367 47.6396 99.4847 47.5764 99.1382 47.5764C98.9176 47.5764 98.6971 47.608 98.4766 47.6712C98.2561 47.7345 98.0671 47.8293 97.9095 47.9557L97.5315 47.2603C97.752 47.1022 98.0041 46.9758 98.2876 46.8809C98.5711 46.7861 98.9176 46.7545 99.2327 46.7545C99.8627 46.8177 100.335 46.9758 100.65 47.2603ZM99.7682 50.137C99.9572 50.0422 100.083 49.8841 100.146 49.6628V49.1886H99.1696C98.6341 49.1886 98.3506 49.3783 98.3506 49.726C98.3506 49.8841 98.4136 50.0422 98.5711 50.137C98.6971 50.2318 98.8861 50.2951 99.1382 50.2951C99.3587 50.2951 99.5792 50.2634 99.7682 50.137Z" fill="#0070B3"/>
<path d="M102.761 45.2687H103.706V50.9273H102.761V45.2687Z" fill="#0070B3"/>
<path d="M105.407 46.0274C105.281 45.9326 105.218 45.7745 105.218 45.6164C105.218 45.4584 105.281 45.3319 105.407 45.2055C105.533 45.1106 105.659 45.0474 105.848 45.0474C106.037 45.0474 106.163 45.1106 106.289 45.2055C106.415 45.3003 106.478 45.4268 106.478 45.5848C106.478 45.7429 106.415 45.9009 106.321 45.9958C106.226 46.0906 106.069 46.1538 105.88 46.1538C105.691 46.1855 105.533 46.1538 105.407 46.0274ZM105.376 46.8809H106.321V50.9589H105.376V46.8809Z" fill="#0070B3"/>
<path d="M114.322 47.2603C114.637 47.5448 114.763 48.019 114.763 48.588V50.9273H113.818V48.7144C113.818 48.3667 113.755 48.0822 113.598 47.9241C113.44 47.7345 113.22 47.6396 112.905 47.6396C112.59 47.6396 112.338 47.7345 112.149 47.9557C111.96 48.177 111.865 48.4615 111.865 48.8725V50.9273H110.92V48.7144C110.92 48.3667 110.857 48.0822 110.699 47.9241C110.542 47.7345 110.321 47.6396 110.006 47.6396C109.691 47.6396 109.439 47.7345 109.219 47.9557C108.998 48.177 108.935 48.4615 108.935 48.8725V50.9273H107.99V46.8493H108.904V47.3551C109.061 47.1654 109.25 47.039 109.471 46.9442C109.691 46.8493 109.943 46.7861 110.227 46.7861C110.542 46.7861 110.794 46.8493 111.046 46.9442C111.298 47.039 111.456 47.2287 111.613 47.45C111.771 47.2287 111.991 47.0706 112.275 46.9442C112.527 46.8177 112.842 46.7545 113.157 46.7545C113.629 46.8177 114.039 46.9758 114.322 47.2603Z" fill="#0070B3"/>
<path d="M120.276 49.2202H117.094C117.157 49.5364 117.283 49.7576 117.536 49.9473C117.788 50.137 118.071 50.2002 118.418 50.2002C118.859 50.2002 119.237 50.0421 119.52 49.7576L120.024 50.3583C119.835 50.5796 119.615 50.7376 119.331 50.8641C119.048 50.9905 118.733 51.0221 118.386 51.0221C117.945 51.0221 117.536 50.9273 117.22 50.7692C116.905 50.6112 116.622 50.3583 116.433 50.0105C116.244 49.6944 116.149 49.3467 116.149 48.9357C116.149 48.5248 116.244 48.177 116.433 47.8609C116.622 47.5448 116.874 47.2919 117.189 47.1022C117.504 46.9125 117.882 46.8493 118.26 46.8493C118.67 46.8493 119.016 46.9441 119.331 47.1022C119.646 47.2919 119.898 47.5132 120.056 47.8293C120.245 48.1454 120.308 48.5248 120.308 48.9357C120.276 48.9989 120.276 49.0938 120.276 49.2202ZM117.441 47.8609C117.22 48.0506 117.094 48.2719 117.063 48.588H119.363C119.331 48.3035 119.205 48.0506 118.985 47.8609C118.764 47.6712 118.512 47.5764 118.197 47.5764C117.914 47.5764 117.662 47.6712 117.441 47.8609Z" fill="#0070B3"/>
<path d="M125.159 47.2603C125.474 47.5764 125.632 48.019 125.632 48.588V50.9273H124.687V48.7144C124.687 48.3667 124.592 48.0822 124.435 47.9241C124.277 47.7345 124.025 47.6396 123.71 47.6396C123.363 47.6396 123.08 47.7345 122.891 47.9557C122.702 48.177 122.576 48.4615 122.576 48.8725V50.9273H121.631V46.8493H122.544V47.3867C122.702 47.197 122.891 47.0706 123.143 46.9441C123.395 46.8493 123.647 46.7861 123.962 46.7861C124.435 46.8177 124.844 46.9758 125.159 47.2603Z" fill="#0070B3"/>
<path d="M129.695 50.7376C129.569 50.8325 129.443 50.8957 129.286 50.9589C129.128 50.9905 128.971 51.0221 128.782 51.0221C128.341 51.0221 127.994 50.8957 127.742 50.6744C127.49 50.4531 127.364 50.1054 127.364 49.6628V47.7028H126.703V46.9441H127.364V46.0274H128.309V46.9441H129.412V47.7028H128.309V49.6312C128.309 49.8209 128.372 49.9789 128.467 50.0738C128.561 50.1686 128.687 50.2318 128.876 50.2318C129.097 50.2318 129.254 50.1686 129.412 50.0738L129.695 50.7376Z" fill="#0070B3"/>
<path d="M130.924 46.0274C130.798 45.9326 130.735 45.7745 130.735 45.6164C130.735 45.4584 130.798 45.3319 130.924 45.2055C131.05 45.1106 131.176 45.0474 131.365 45.0474C131.554 45.0474 131.68 45.1106 131.806 45.2055C131.932 45.3003 131.995 45.4268 131.995 45.5848C131.995 45.7429 131.932 45.9009 131.838 45.9958C131.743 46.0906 131.586 46.1538 131.397 46.1538C131.208 46.1855 131.05 46.1538 130.924 46.0274ZM130.893 46.8809H131.838V50.9589H130.893V46.8809Z" fill="#0070B3"/>
<path d="M134.232 50.7376C133.885 50.5479 133.633 50.3267 133.444 49.9789C133.255 49.6628 133.161 49.3151 133.161 48.9041C133.161 48.4931 133.255 48.1454 133.444 47.8293C133.633 47.5132 133.885 47.2603 134.232 47.1022C134.578 46.9125 134.956 46.8493 135.366 46.8493C135.775 46.8493 136.122 46.9441 136.405 47.1022C136.72 47.2603 136.941 47.5132 137.098 47.7977L136.374 48.2403C136.248 48.0506 136.122 47.9241 135.933 47.8293C135.744 47.7345 135.555 47.7028 135.366 47.7028C135.019 47.7028 134.704 47.8293 134.484 48.0506C134.263 48.2719 134.137 48.588 134.137 48.9673C134.137 49.3467 134.263 49.6628 134.484 49.8841C134.704 50.1054 135.019 50.2318 135.366 50.2318C135.586 50.2318 135.775 50.2002 135.933 50.1054C136.09 50.0105 136.248 49.8841 136.374 49.6944L137.098 50.137C136.941 50.4531 136.72 50.6744 136.405 50.8325C136.09 50.9905 135.744 51.0854 135.366 51.0854C134.956 50.9905 134.578 50.8957 134.232 50.7376Z" fill="#0070B3"/>
<path d="M138.39 46.0274C138.264 45.9326 138.201 45.7745 138.201 45.6164C138.201 45.4584 138.264 45.3319 138.39 45.2055C138.516 45.1106 138.642 45.0474 138.831 45.0474C139.02 45.0474 139.146 45.1106 139.272 45.2055C139.398 45.3003 139.461 45.4268 139.461 45.5848C139.461 45.7429 139.398 45.9009 139.304 45.9958C139.209 46.0906 139.052 46.1538 138.863 46.1538C138.642 46.1855 138.516 46.1538 138.39 46.0274ZM138.359 46.8809H139.304V50.9589H138.359V46.8809Z" fill="#0070B3"/>
<path d="M141.666 50.7376C141.351 50.5479 141.068 50.3267 140.879 49.9789C140.69 49.6628 140.595 49.3151 140.595 48.9041C140.595 48.4931 140.69 48.1454 140.879 47.8293C141.068 47.5132 141.32 47.2603 141.666 47.1022C141.981 46.9125 142.359 46.8493 142.769 46.8493C143.178 46.8493 143.556 46.9441 143.903 47.1022C144.218 47.2919 144.502 47.5132 144.691 47.8293C144.88 48.1454 144.974 48.4931 144.974 48.9041C144.974 49.3151 144.88 49.6628 144.691 49.9789C144.502 50.295 144.249 50.5479 143.903 50.7376C143.556 50.9273 143.21 50.9905 142.769 50.9905C142.391 50.9905 142.013 50.8957 141.666 50.7376ZM143.651 49.8209C143.871 49.5996 143.997 49.2835 143.997 48.9041C143.997 48.5248 143.871 48.2086 143.651 47.9874C143.43 47.7661 143.147 47.6396 142.769 47.6396C142.391 47.6396 142.139 47.7661 141.918 47.9874C141.698 48.2086 141.572 48.5248 141.572 48.9041C141.572 49.2835 141.698 49.5996 141.918 49.8209C142.139 50.0421 142.422 50.1686 142.769 50.1686C143.115 50.1686 143.43 50.0738 143.651 49.8209Z" fill="#0070B3"/>
<path d="M146.581 50.8641C146.266 50.7692 146.014 50.6744 145.825 50.5479L146.203 49.8209C146.392 49.9473 146.612 50.0421 146.864 50.1054C147.116 50.1686 147.368 50.2318 147.62 50.2318C148.187 50.2318 148.471 50.0738 148.471 49.7892C148.471 49.6312 148.408 49.5364 148.25 49.5047C148.093 49.4415 147.872 49.4099 147.557 49.3467C147.211 49.2835 146.959 49.2518 146.738 49.157C146.518 49.0938 146.36 48.9673 146.203 48.8093C146.045 48.6512 145.982 48.3983 145.982 48.1138C145.982 47.7345 146.14 47.4183 146.455 47.197C146.77 46.9758 147.211 46.8493 147.746 46.8493C148.03 46.8493 148.313 46.8809 148.597 46.9441C148.88 47.0074 149.101 47.1022 149.29 47.197L148.912 47.9241C148.565 47.7345 148.187 47.608 147.746 47.608C147.463 47.608 147.242 47.6396 147.116 47.7345C146.959 47.8293 146.896 47.9241 146.896 48.0822C146.896 48.2403 146.959 48.3351 147.116 48.3983C147.274 48.4615 147.526 48.5248 147.841 48.588C148.156 48.6512 148.439 48.6828 148.628 48.7777C148.849 48.8409 149.006 48.9673 149.164 49.1254C149.321 49.2835 149.384 49.5047 149.384 49.7892C149.384 50.1686 149.227 50.4847 148.88 50.706C148.565 50.9273 148.093 51.0537 147.526 51.0537C147.211 50.9905 146.896 50.9589 146.581 50.8641Z" fill="#0070B3"/>
<path d="M153.858 50.7376C153.543 50.5479 153.259 50.3267 153.07 49.9789C152.881 49.6628 152.787 49.3151 152.787 48.9041C152.787 48.4931 152.881 48.1454 153.07 47.8293C153.259 47.5132 153.511 47.2603 153.858 47.1022C154.173 46.9125 154.551 46.8493 154.96 46.8493C155.37 46.8493 155.748 46.9441 156.094 47.1022C156.409 47.2919 156.693 47.5132 156.882 47.8293C157.071 48.1454 157.165 48.4931 157.165 48.9041C157.165 49.3151 157.071 49.6628 156.882 49.9789C156.693 50.295 156.441 50.5479 156.094 50.7376C155.779 50.9273 155.401 50.9905 154.96 50.9905C154.551 50.9905 154.204 50.8957 153.858 50.7376ZM155.842 49.8209C156.063 49.5996 156.189 49.2835 156.189 48.9041C156.189 48.5248 156.063 48.2086 155.842 47.9874C155.622 47.7661 155.338 47.6396 154.96 47.6396C154.582 47.6396 154.33 47.7661 154.11 47.9874C153.889 48.2086 153.763 48.5248 153.763 48.9041C153.763 49.2835 153.889 49.5996 154.11 49.8209C154.33 50.0421 154.614 50.1686 154.96 50.1686C155.307 50.1686 155.622 50.0738 155.842 49.8209Z" fill="#0070B3"/>
<path d="M160.82 46.8177V47.7345C160.725 47.7345 160.662 47.7028 160.599 47.7028C160.221 47.7028 159.938 47.7977 159.717 48.019C159.497 48.2402 159.402 48.5564 159.402 48.9673V50.9589H158.457V46.8809H159.371V47.4816C159.654 47.039 160.127 46.8177 160.82 46.8177Z" fill="#0070B3"/>
<path d="M162.111 46.0274C161.985 45.9326 161.922 45.7745 161.922 45.6164C161.922 45.4584 161.985 45.3319 162.111 45.2055C162.237 45.1106 162.363 45.0474 162.552 45.0474C162.741 45.0474 162.867 45.1106 162.993 45.2055C163.119 45.3003 163.182 45.4268 163.182 45.5848C163.182 45.7429 163.119 45.9009 163.025 45.9958C162.93 46.0906 162.773 46.1538 162.584 46.1538C162.363 46.1855 162.206 46.1538 162.111 46.0274ZM162.048 46.8809H162.993V50.9589H162.048V46.8809Z" fill="#0070B3"/>
<path d="M168.475 49.2202H165.293C165.356 49.5364 165.482 49.7576 165.734 49.9473C165.986 50.137 166.27 50.2002 166.616 50.2002C167.057 50.2002 167.435 50.0421 167.719 49.7576L168.223 50.3583C168.034 50.5796 167.813 50.7376 167.53 50.8641C167.246 50.9905 166.931 51.0221 166.585 51.0221C166.144 51.0221 165.734 50.9273 165.419 50.7692C165.104 50.6112 164.821 50.3583 164.632 50.0105C164.443 49.6944 164.348 49.3467 164.348 48.9357C164.348 48.5248 164.443 48.177 164.632 47.8609C164.821 47.5448 165.073 47.2919 165.388 47.1022C165.703 46.9125 166.081 46.8493 166.459 46.8493C166.868 46.8493 167.215 46.9441 167.53 47.1022C167.845 47.2919 168.097 47.5132 168.254 47.8293C168.443 48.1454 168.506 48.5248 168.506 48.9357C168.506 48.9989 168.475 49.0938 168.475 49.2202ZM165.671 47.8609C165.451 48.0506 165.325 48.2719 165.293 48.588H167.593C167.561 48.3035 167.435 48.0506 167.215 47.8609C166.994 47.6712 166.742 47.5764 166.427 47.5764C166.144 47.5764 165.892 47.6712 165.671 47.8609Z" fill="#0070B3"/>
<path d="M173.358 47.2603C173.673 47.5764 173.83 48.019 173.83 48.588V50.9273H172.885V48.7144C172.885 48.3667 172.791 48.0822 172.633 47.9241C172.476 47.7345 172.224 47.6396 171.909 47.6396C171.562 47.6396 171.279 47.7345 171.09 47.9557C170.901 48.177 170.775 48.4615 170.775 48.8725V50.9273H169.83V46.8493H170.743V47.3867C170.901 47.197 171.09 47.0706 171.342 46.9441C171.594 46.8493 171.846 46.7861 172.161 46.7861C172.633 46.8177 173.043 46.9758 173.358 47.2603Z" fill="#0070B3"/>
<path d="M177.894 50.7376C177.768 50.8325 177.642 50.8957 177.485 50.9589C177.327 50.9905 177.17 51.0221 176.981 51.0221C176.539 51.0221 176.193 50.8957 175.941 50.6744C175.689 50.4531 175.563 50.1054 175.563 49.6628V47.7028H174.901V46.9441H175.563V46.0274H176.508V46.9441H177.611V47.7028H176.508V49.6312C176.508 49.8209 176.571 49.9789 176.665 50.0738C176.76 50.1686 176.886 50.2318 177.075 50.2318C177.296 50.2318 177.453 50.1686 177.611 50.0738L177.894 50.7376Z" fill="#0070B3"/>
<path d="M182.021 47.2603C182.336 47.5448 182.493 47.9874 182.493 48.5564V50.9589H181.58V50.4531C181.454 50.6428 181.296 50.7692 181.076 50.8641C180.855 50.9589 180.603 50.9905 180.288 50.9905C179.973 50.9905 179.721 50.9273 179.501 50.8325C179.28 50.7376 179.091 50.5796 178.965 50.3899C178.839 50.2002 178.776 49.9789 178.776 49.7576C178.776 49.3783 178.902 49.0938 179.186 48.8725C179.469 48.6512 179.879 48.5248 180.477 48.5248H181.517V48.4615C181.517 48.177 181.422 47.9557 181.265 47.7977C181.107 47.6396 180.855 47.5764 180.509 47.5764C180.288 47.5764 180.068 47.608 179.847 47.6712C179.627 47.7345 179.438 47.8293 179.28 47.9557L178.902 47.2603C179.123 47.1022 179.375 46.9758 179.658 46.8809C179.942 46.7861 180.288 46.7545 180.603 46.7545C181.265 46.8177 181.706 46.9758 182.021 47.2603ZM181.17 50.137C181.359 50.0422 181.485 49.8841 181.548 49.6628V49.1886H180.572C180.036 49.1886 179.753 49.3783 179.753 49.726C179.753 49.8841 179.816 50.0422 179.973 50.137C180.099 50.2318 180.288 50.2951 180.54 50.2951C180.761 50.2951 180.981 50.2634 181.17 50.137Z" fill="#0070B3"/>
<path d="M184.132 45.2687H185.077V50.9273H184.132V45.2687Z" fill="#0070B3"/>
<path d="M190.558 49.2202H187.376C187.439 49.5364 187.565 49.7576 187.817 49.9473C188.069 50.137 188.353 50.2002 188.699 50.2002C189.14 50.2002 189.518 50.0421 189.802 49.7576L190.306 50.3583C190.117 50.5796 189.896 50.7376 189.613 50.8641C189.329 50.9905 189.014 51.0221 188.668 51.0221C188.227 51.0221 187.817 50.9273 187.502 50.7692C187.187 50.6112 186.904 50.3583 186.715 50.0105C186.526 49.6944 186.431 49.3467 186.431 48.9357C186.431 48.5248 186.526 48.177 186.715 47.8609C186.904 47.5448 187.156 47.2919 187.471 47.1022C187.786 46.9125 188.164 46.8493 188.542 46.8493C188.951 46.8493 189.298 46.9441 189.613 47.1022C189.928 47.2919 190.18 47.5132 190.337 47.8293C190.526 48.1454 190.589 48.5248 190.589 48.9357C190.589 48.9989 190.589 49.0938 190.558 49.2202ZM187.754 47.8609C187.534 48.0506 187.408 48.2719 187.376 48.588H189.676C189.644 48.3035 189.518 48.0506 189.298 47.8609C189.077 47.6712 188.825 47.5764 188.51 47.5764C188.227 47.5764 187.975 47.6712 187.754 47.8609Z" fill="#0070B3"/>
<path d="M192.196 50.8641C191.881 50.7692 191.629 50.6744 191.44 50.5479L191.818 49.8209C192.007 49.9473 192.228 50.0421 192.48 50.1054C192.732 50.1686 192.984 50.2318 193.236 50.2318C193.803 50.2318 194.086 50.0738 194.086 49.7892C194.086 49.6312 194.023 49.5364 193.866 49.5047C193.708 49.4415 193.488 49.4099 193.173 49.3467C192.826 49.2835 192.574 49.2518 192.354 49.157C192.133 49.0938 191.976 48.9673 191.818 48.8093C191.661 48.6512 191.598 48.3983 191.598 48.1138C191.598 47.7345 191.755 47.4183 192.07 47.197C192.385 46.9758 192.826 46.8493 193.362 46.8493C193.645 46.8493 193.929 46.8809 194.212 46.9441C194.496 47.0074 194.716 47.1022 194.905 47.197L194.527 47.9241C194.181 47.7345 193.803 47.608 193.362 47.608C193.078 47.608 192.858 47.6396 192.732 47.7345C192.574 47.8293 192.511 47.9241 192.511 48.0822C192.511 48.2403 192.574 48.3351 192.732 48.3983C192.889 48.4615 193.141 48.5248 193.456 48.588C193.771 48.6512 194.055 48.6828 194.244 48.7777C194.464 48.8409 194.622 48.9673 194.779 49.1254C194.937 49.2835 195 49.5047 195 49.7892C195 50.1686 194.842 50.4847 194.496 50.706C194.181 50.9273 193.708 51.0537 193.141 51.0537C192.826 50.9905 192.511 50.9589 192.196 50.8641Z" fill="#0070B3"/>
<path d="M76.0468 41.6649L69.8093 34.0464L63.6348 41.6649H58.7834L67.3206 31.4225L59.256 21.5911H64.0759L69.9353 28.7039L75.7317 21.5595H80.3626L72.3295 31.2645L80.9611 41.6649H76.0468Z" fill="#0070B3"/>
<path d="M82.7253 21.5595H86.9782V41.6649H82.7253V21.5595Z" fill="#0070B3"/>
<path d="M112.747 21.5595V41.6649H109.25L96.5863 28.0717V41.6649H92.365V21.5595H95.8618L108.526 35.1528V21.5595H112.747Z" fill="#0070B3"/>
<path d="M116.716 41.6649H114.921L123.552 31.2645L115.519 21.5595H120.15L125.947 28.7039L132.531 20.4847C133.57 19.1886 135.145 18.4615 136.815 18.4615H139.02L128.561 31.3909L137.098 41.6333H132.247L126.073 34.0147L121.82 39.2308C120.56 40.7798 118.701 41.6649 116.716 41.6649Z" fill="#0070B3"/>
<path d="M139.241 21.5595H143.494V41.6649H139.241V21.5595Z" fill="#0070B3"/>
<path d="M169.294 21.5595V41.6649H165.797L153.133 28.0717V41.6649H148.912V21.5595H152.409L165.073 35.1528V21.5595H169.294Z" fill="#0070B3"/>
<path d="M193.992 31.3909H185.203V34.4889H190.306V37.6502C188.951 38.3456 187.376 38.6934 185.581 38.6934C183.974 38.6934 182.556 38.3772 181.296 37.7766C180.036 37.176 179.06 36.3224 178.335 35.2476C177.611 34.1728 177.264 32.9715 177.264 31.6438C177.264 30.2529 177.611 29.0516 178.335 27.9768C179.06 26.902 180.036 26.0801 181.296 25.4795C182.556 24.8788 184.006 24.5943 185.612 24.5943C188.069 24.5943 190.18 25.353 191.944 26.902L194.622 24.5943C193.551 23.5195 192.228 22.6976 190.653 22.1602C189.077 21.5911 187.345 21.3382 185.392 21.3382C183.029 21.3382 180.918 21.7808 179.028 22.666C177.138 23.5511 175.657 24.784 174.586 26.3646C173.515 27.9452 172.98 29.7155 172.98 31.6754C172.98 33.6354 173.515 35.4057 174.586 36.9863C175.657 38.5669 177.138 39.7998 179.028 40.6849C180.918 41.5701 183.029 42.0126 185.36 42.0126C187.03 42.0126 188.636 41.7914 190.212 41.3488C191.787 40.9062 193.173 40.274 194.338 39.4521V31.3909H193.992Z" fill="#0070B3"/>
<path d="M21.0435 18.6512C20.9805 18.9041 20.823 19.0622 20.5395 19.0938L0.409424 19.9473L14.1445 24.373L24.1308 23.7408C24.4143 23.7092 24.6348 23.5195 24.6978 23.2666L27.6275 12.9294C27.6905 12.4868 27.722 12.0443 27.785 11.6017L27.407 0L21.0435 18.6512Z" fill="#E51A2F"/>
<path d="M17.2633 33.7935L22.7448 31.7703V31.7071L13.168 25.1633L0 20.8325C0 20.8325 17.2318 33.7619 17.2633 33.7935Z" fill="#E51A2F"/>
<path d="M34.8101 18.6828L31.7544 23.5195L43.2528 23.1085L55.7277 17.8925L34.8101 18.6828Z" fill="#0070B3"/>
<path d="M42.5283 24.4995L34.2747 31.4226L34.3377 31.4858L39.9451 33.098C40.0081 33.0348 55.9798 18.9357 55.9798 18.9357L42.5283 24.4995Z" fill="#E51A2F"/>
<path d="M22.7762 32.9083L17.2948 34.9631L9.48218 59.4942L19.7835 43.1191L22.7762 32.9083Z" fill="#0070B3"/>
<path d="M38.685 44.0674L28.9192 37.3973L20.3506 43.7829L10.1753 60L29.1398 43.1191L44.891 53.0453L38.685 44.0674Z" fill="#0070B3"/>
</g>
<defs>
<clipPath id="clip0_326_78">
<rect width="195" height="60" fill="white"/>
</clipPath>
</defs>
</svg>
